<svg width="50" height="50" viewBox="0 0 50 50" fill="none" xmlns="http://www.w3.org/2000/svg">
<path d="M50 7.46072C50 6.18072 49.63 5.79072 48.38 5.79072H33C34.0675 6.3103 34.9402 7.15849 35.49 8.21072H47.65V11.8207H34.53C33.0929 13.0225 31.3712 13.8351 29.53 14.1807H45.4V45.0007H35.79V30.4907C35.79 28.7907 35.53 28.4907 33.86 28.4907H16.16C14.57 28.4907 14.28 28.7707 14.28 30.3407V45.0407H4.66V14.1807H20.43C18.5888 13.8351 16.8671 13.0225 15.43 11.8207H2.36V8.21072H14.49C15.045 7.15536 15.9251 6.30681 17 5.79072H1.59C1.26975 5.75188 0.945317 5.81264 0.660824 5.96473C0.376332 6.11682 0.145595 6.35285 0 6.64072L0 13.3407C0.47 14.2807 1.4 14.0907 2.31 14.1507V15.1507C2.31 25.2907 2.31 35.4307 2.31 45.5707C2.31 47.0507 2.63 47.3807 4.08 47.3807H46.52C46.6837 47.3807 46.8457 47.3483 46.9968 47.2854C47.1479 47.2224 47.2851 47.1302 47.4004 47.014C47.5156 46.8978 47.6068 46.7599 47.6685 46.6083C47.7302 46.4567 47.7613 46.2944 47.76 46.1307V45.1307C47.76 40.7207 47.76 19.3007 47.76 14.2007H48.26C49.72 14.2007 49.99 13.8907 49.99 12.4407L50 7.46072ZM23.82 45.0007H16.64V30.8407H23.82V45.0007ZM33.43 45.0007H26.22V30.8207H33.43V45.0007Z" fill="#05141F"/>
<path d="M24.9997 14.6897C26.5374 14.6922 28.0704 14.5211 29.5697 14.1797H20.4297C21.929 14.5211 23.462 14.6922 24.9997 14.6897Z" fill="white"/>
<path d="M25 3.99919C22.227 3.93147 19.4798 4.54616 17 5.78919H33C30.5202 4.54616 27.773 3.93147 25 3.99919Z" fill="white"/>
<path d="M20.4297 14.1803H29.5697C31.411 13.8347 33.1326 13.0221 34.5697 11.8203H15.4697C16.8955 13.016 18.6026 13.8283 20.4297 14.1803Z" fill="white"/>
<path d="M25.0002 15.69C18.4102 15.69 13.2402 12.9 13.2402 9.34C13.2402 5.78 18.4102 3 25.0002 3C31.5902 3 36.7602 5.79 36.7602 9.34C36.7602 12.89 31.5902 15.69 25.0002 15.69ZM25.0002 5C19.2502 5 15.2402 7.29 15.2402 9.34C15.2402 11.39 19.2402 13.69 25.0002 13.69C30.7602 13.69 34.7602 11.4 34.7602 9.34C34.7602 7.28 30.7502 5 25.0002 5Z" fill="#05141F"/>
<path d="M35.6896 22.5H14.3096V24.5H35.6896V22.5Z" fill="#05141F"/>
</svg>
