<svg width="50" height="50" viewBox="0 0 50 50" fill="none" xmlns="http://www.w3.org/2000/svg">
<path fill-rule="evenodd" clip-rule="evenodd" d="M26 11.5C26 12.3284 25.3284 13 24.5 13C23.6716 13 23 12.3284 23 11.5C23 10.6716 23.6716 10 24.5 10C25.3284 10 26 10.6716 26 11.5ZM27.9914 11.7472C27.9971 11.6656 28 11.5831 28 11.5C28 9.567 26.433 8 24.5 8C22.567 8 21 9.567 21 11.5C21 11.783 21.0336 12.0582 21.097 12.3217L12.9511 13.0006C12.2216 13.0178 11.5004 13.4217 11.1616 14.2122L4.27558 30.2796C4.08032 30.7353 4.00691 31.2027 4.03588 31.6523C4.01213 31.9188 4 32.1887 4 32.4614C4 37.432 8.02944 41.4614 13 41.4614C17.9706 41.4614 22 37.432 22 32.4614C22 32.1884 21.9878 31.9183 21.9641 31.6515C21.9929 31.2021 21.9194 30.735 21.7243 30.2796L15.1023 14.8282L22.3069 14.2279C22.907 14.7109 23.6697 15 24.5 15C25.5395 15 26.4732 14.5468 27.1142 13.8272L34.7419 13.1916L28.2756 28.2796C28.0803 28.7353 28.0069 29.2027 28.0359 29.6523C28.0121 29.9188 28 30.1887 28 30.4614C28 35.432 32.0294 39.4614 37 39.4614C41.9706 39.4614 46 35.432 46 30.4614C46 30.1884 45.9878 29.9183 45.9641 29.6515C45.9929 29.2021 45.9194 28.735 45.7243 28.2796L38.8382 12.2122C38.4464 11.2978 37.5429 10.9008 36.7067 11.0209L27.9914 11.7472ZM37.0014 13.0033L36.9984 13.0036L30.1139 29.0675C29.8311 29.7274 30.3151 30.4614 31.033 30.4614H42.9669C43.6848 30.4614 44.1688 29.7274 43.886 29.0675L37.0014 13.0033ZM42.9669 32.4614C43.2361 32.4614 43.4944 32.427 43.7387 32.3629C42.9102 35.3049 40.2069 37.4614 37 37.4614C33.7931 37.4614 31.0898 35.3049 30.2613 32.3629C30.5055 32.427 30.7638 32.4614 31.033 32.4614H42.9669ZM18.9669 34.4614C19.2361 34.4614 19.4944 34.427 19.7387 34.3629C18.9102 37.3049 16.2069 39.4614 13 39.4614C9.79307 39.4614 7.08983 37.3049 6.26135 34.3629C6.50552 34.427 6.76379 34.4614 7.03302 34.4614H18.9669ZM19.886 31.0675L12.9999 15L6.11387 31.0675C5.83107 31.7274 6.3151 32.4614 7.03302 32.4614H18.9669C19.6848 32.4614 20.1688 31.7274 19.886 31.0675Z" fill="#05141F"/>
</svg>
