<svg width="50" height="50" viewBox="0 0 50 50" fill="none" xmlns="http://www.w3.org/2000/svg">
<path d="M10.0892 4.50324C9.41201 4.53582 8.74707 4.828 8.25944 5.37192L4.84891 9.17592C4.85368 9.16463 4.83556 9.16627 4.73893 9.305C4.68742 9.37657 4.64739 9.45595 4.62033 9.54021C3.23211 14.0269 4.16271 18.9624 6.42956 23.6565C8.69652 28.3506 12.3124 32.8428 16.4638 36.5289C20.6152 40.2152 25.2992 43.0991 29.7652 44.5296C34.2313 45.9601 38.5615 45.9411 41.7706 43.5789C41.8055 43.5527 41.8383 43.5238 41.8687 43.4924C41.9528 43.4071 41.9556 43.3963 41.942 43.4092L41.9549 43.3927L45.3492 39.6052C46.3246 38.5172 46.2459 36.8072 45.1735 35.8176L37.1211 28.387C36.0488 27.3973 34.3635 27.4763 33.3881 28.5642L29.7447 32.6296C26.7873 31.7607 24.2588 30.2876 21.8271 28.0433C19.395 25.7987 17.7101 23.3829 16.5781 20.4769L20.2205 16.4116C21.1958 15.3236 21.1182 13.6136 20.0458 12.624L11.9934 5.19337C11.4573 4.69855 10.7675 4.47052 10.0902 4.50304L10.0892 4.50324ZM10.1657 6.17055C10.4152 6.15925 10.669 6.24718 10.8763 6.43859L18.9287 13.8692C19.3435 14.252 19.3717 14.863 18.9945 15.2838L14.9682 19.7737C14.867 19.8871 14.7982 20.0265 14.7693 20.1767C14.7404 20.3269 14.7525 20.4822 14.8043 20.626C16.0263 24.0095 17.9975 26.7851 20.7099 29.2885C23.4223 31.7917 26.3298 33.5213 29.7652 34.4359C29.9115 34.4749 30.0655 34.4724 30.2105 34.4288C30.3556 34.3853 30.4861 34.3022 30.5879 34.1887L34.6151 29.6976C34.9923 29.2769 35.5935 29.2491 36.0082 29.632L44.0617 37.0626C44.4765 37.4454 44.5036 38.0553 44.1264 38.4761L40.7601 42.2307C38.1266 44.1487 34.4168 44.2562 30.2622 42.9255C26.0914 41.5895 21.5635 38.8224 17.556 35.2639C13.5485 31.7053 10.061 27.3596 7.91746 22.921C5.79598 18.5279 5.02634 14.0867 6.19328 10.1721L9.48202 6.5049C9.67063 6.29454 9.91619 6.18188 10.1656 6.1701L10.1657 6.17055Z" fill="#05141F"/>
</svg>
