<svg width="50" height="50" viewBox="0 0 50 50" fill="none" xmlns="http://www.w3.org/2000/svg">
<g clip-path="url(#clip0_289_9438)">
<path d="M0 26.7804C0.140017 26.2298 0.482403 25.7522 0.958897 25.4428C1.43539 25.1334 2.01098 25.015 2.57092 25.1111C3.20372 25.1136 3.83576 25.1554 4.4634 25.2361C5.2897 25.4507 6.01177 25.9542 6.49872 26.6554C6.56666 26.5608 6.62925 26.4625 6.68618 26.3609C7.65027 24.3613 8.63222 22.3617 9.56954 20.3531C9.89288 19.5637 10.4525 18.8937 11.1718 18.435C11.891 17.9763 12.7345 17.7514 13.5866 17.7911H26.709V7.33784C26.6611 7.00786 26.6909 6.67125 26.7959 6.35479C26.901 6.03834 27.0785 5.75079 27.3143 5.51501C27.5501 5.27923 27.8376 5.10174 28.1541 4.99666C28.4705 4.89159 28.8071 4.86182 29.1371 4.90974H31.6991V4.3295C31.6991 3.30292 31.8866 3.12438 32.931 3.12438H34.4932C34.6608 2.3341 35.0633 1.61291 35.6479 1.05537C36.2325 0.497828 36.972 0.12996 37.7693 0L38.9387 0C39.4551 0.181128 39.959 0.39583 40.4474 0.64273C40.8841 0.922186 41.2612 1.28535 41.5569 1.71129C41.8526 2.13722 42.0611 2.61749 42.1702 3.12438H43.9556C44.0766 3.10821 44.1998 3.12017 44.3155 3.15931C44.4311 3.19845 44.5362 3.26374 44.6226 3.35009C44.7089 3.43644 44.7742 3.54153 44.8134 3.65721C44.8525 3.77288 44.8645 3.89602 44.8483 4.01706C44.8483 4.33843 44.8483 4.65087 44.8483 4.99009H47.6067C47.9227 4.95927 48.2416 4.99793 48.5412 5.10335C48.8407 5.20877 49.1135 5.37841 49.3406 5.60037C49.5677 5.82233 49.7434 6.09125 49.8556 6.3883C49.9678 6.68535 50.0137 7.00333 49.9901 7.31998V33.2702C50.0204 33.5841 49.981 33.9008 49.8747 34.1977C49.7684 34.4946 49.5979 34.7643 49.3754 34.9877C49.1528 35.2111 48.8837 35.3827 48.5872 35.4901C48.2908 35.5975 47.9742 35.6381 47.6602 35.609H42.4113C42.4113 35.7608 42.4113 35.859 42.4113 35.9572C42.4113 36.9302 42.4113 37.9032 42.4113 38.8762C42.4067 40.5516 41.8268 42.1746 40.7687 43.4736C40.6402 43.6509 40.5658 43.8618 40.5545 44.0806C40.5545 45.1875 40.5545 46.2944 40.5545 47.4013C40.5246 48.0913 40.2293 48.743 39.7302 49.2204C39.2312 49.6978 38.5671 49.964 37.8764 49.9633C36.7695 49.9633 35.6626 49.9633 34.5646 49.9633C34.1784 49.9481 33.8004 49.8475 33.4577 49.6688C33.0251 49.4446 32.6618 49.1068 32.4069 48.6915C32.1521 48.2762 32.0154 47.7993 32.0115 47.3121C32.0115 46.83 32.0115 46.348 32.0115 45.857H13.2652C13.2652 46.348 13.2652 46.8122 13.2652 47.2853C13.2653 47.6423 13.194 47.9957 13.0556 48.3248C12.9171 48.6538 12.7142 48.9519 12.4589 49.2014C12.2036 49.4509 11.9009 49.6469 11.5687 49.7777C11.2366 49.9086 10.8816 49.9717 10.5247 49.9633C9.44456 49.8741 8.34657 49.9633 7.25749 49.9633C6.90644 49.9592 6.56112 49.8737 6.24877 49.7134C5.7997 49.4954 5.4224 49.1535 5.1614 48.728C4.90041 48.3025 4.76662 47.8112 4.77584 47.3121C4.77584 46.2319 4.77584 45.1607 4.77584 44.0895C4.7698 43.8518 4.692 43.6216 4.55267 43.4289C3.46942 42.0506 2.88987 40.3435 2.91014 38.5906C2.91014 37.2069 2.91014 35.8233 2.91014 34.4396C2.82565 32.9514 3.22662 31.4759 4.05277 30.2351C4.05277 30.2351 4.05277 30.1815 4.05277 30.128C3.62428 30.128 3.16009 30.128 2.74946 30.128C2.17885 30.223 1.59314 30.108 1.10077 29.8044C0.608394 29.5008 0.242709 29.029 0.0714145 28.4765L0 26.7804ZM31.708 6.47194H29.1996C28.3605 6.47194 28.1909 6.64154 28.1909 7.46281V33.0292C28.1909 33.9219 28.3605 34.0468 29.2264 34.0468H47.3121C48.2762 34.0468 48.5261 33.7969 48.5261 32.8417V7.51637C48.5261 7.37354 48.5261 7.19501 48.5261 7.08788C48.5261 6.98076 48.1958 6.53442 48.0084 6.5255C47.0353 6.47194 46.0445 6.5255 45.0268 6.5255V7.10574C45.0268 8.09661 44.8126 8.31086 43.8217 8.31086H34.5467C33.8862 8.31086 33.2167 8.31086 32.5471 8.31086C32.4291 8.3236 32.3097 8.30879 32.1983 8.26759C32.087 8.22638 31.9867 8.15991 31.9054 8.0734C31.824 7.98688 31.7639 7.88268 31.7297 7.76899C31.6954 7.6553 31.688 7.53521 31.708 7.41818C31.6991 7.14145 31.708 6.83793 31.708 6.47194ZM26.709 30.3511H6.2934C6.07566 30.3443 5.86294 30.4173 5.6953 30.5565C4.91353 31.3764 4.45392 32.451 4.40092 33.5826C4.40092 35.368 4.3295 37.2337 4.40092 39.0459C4.44722 40.4526 5.0382 41.7864 6.04915 42.7657C7.06011 43.745 8.41198 44.2933 9.81949 44.2948C18.3357 44.2234 26.8608 44.2948 35.3769 44.2948C36.5418 44.3556 37.6916 44.0107 38.6308 43.319C39.5699 42.6272 40.2403 41.6314 40.5277 40.5009C41.0365 38.8852 40.7866 37.2159 40.7955 35.5644C40.7955 35.5644 40.7509 35.5198 40.7241 35.4841H38.8673C38.8673 35.7608 38.8673 36.0107 38.8673 36.2696C38.8673 37.3408 38.4745 37.8497 37.4123 37.8943C35.5644 37.9746 33.7076 37.8943 31.8598 37.8943C31.6488 37.8812 31.4411 37.8361 31.2438 37.7604C31.0362 37.7079 30.8544 37.5826 30.7315 37.4073C30.6086 37.2319 30.5528 37.0183 30.5743 36.8052C30.5743 36.3857 30.6636 35.975 30.7082 35.5198C30.2262 35.5198 29.7084 35.5198 29.1907 35.5198C28.8518 35.5712 28.5055 35.5423 28.1799 35.4353C27.8542 35.3284 27.5583 35.1463 27.3159 34.904C27.0735 34.6616 26.8915 34.3656 26.7845 34.04C26.6776 33.7143 26.6486 33.3681 26.7001 33.0292C26.7804 32.1901 26.709 31.3152 26.709 30.3511ZM26.6108 19.3444H13.6759C13.1545 19.2954 12.6305 19.4057 12.1731 19.6607C11.7157 19.9157 11.3463 20.3034 11.1139 20.7727C9.80163 23.4507 8.51617 26.1288 7.21286 28.8068H26.6108V19.3444ZM43.4914 4.76692H42.0453C40.974 4.76692 40.8759 4.68657 40.7152 3.62428C40.6254 3.03153 40.3195 2.49294 39.8564 2.11223C39.3933 1.73151 38.8057 1.53559 38.2067 1.56219C37.6156 1.58317 37.0533 1.82322 36.6293 2.23568C36.2053 2.64814 35.9498 3.20354 35.9125 3.79389C35.859 4.43662 35.6001 4.68657 34.9485 4.68657H33.2167V6.80223H40.3045C41.1972 6.80223 42.1613 6.80223 43.0808 6.80223C43.2236 6.80223 43.4646 6.64154 43.4736 6.54335C43.5093 5.96311 43.4914 5.40072 43.4914 4.76692ZM6.24877 44.8751C6.24877 45.7677 6.24877 46.4819 6.24877 47.2228C6.25106 47.5307 6.37379 47.8255 6.59067 48.044C6.80756 48.2626 7.10138 48.3876 7.40925 48.3922C8.46261 48.3922 9.51598 48.3922 10.5693 48.3922C10.8572 48.3859 11.1321 48.2711 11.339 48.0709C11.5459 47.8706 11.6695 47.5996 11.6852 47.3121C11.7298 46.8032 11.6852 46.2855 11.6852 45.7231C9.81949 45.732 7.98057 45.9552 6.24877 44.8751ZM38.9387 44.8751C37.198 45.9641 35.368 45.7231 33.4934 45.7677C33.4934 46.3212 33.4934 46.8032 33.4934 47.2853C33.507 47.583 33.6338 47.8643 33.8478 48.0717C34.0618 48.2791 34.347 48.3969 34.6449 48.4011C35.6626 48.4011 36.6892 48.4011 37.7158 48.4011C38.0167 48.4008 38.3069 48.2895 38.5308 48.0885C38.7548 47.8876 38.8969 47.6112 38.9298 47.3121C38.9655 46.5176 38.9387 45.7499 38.9387 44.8751ZM3.68677 28.655H5.09721C5.61496 28.655 5.75779 28.3694 5.51677 27.932C5.24556 27.4582 4.83601 27.0786 4.34301 26.844C3.85001 26.6095 3.29711 26.5312 2.75838 26.6197C1.56219 26.6733 1.53541 26.6197 1.56219 27.8606C1.56219 28.423 1.79429 28.6461 2.3656 28.655H3.68677ZM37.3676 35.6269H36.8677H33.0292C32.3686 35.6269 32.1365 35.8858 32.1365 36.5196H37.3765L37.3676 35.6269Z" fill="#05141F"/>
<path d="M41.9557 14.354C40.6166 14.354 39.2776 14.354 37.9565 14.354C37.3227 14.354 36.9834 14.0773 36.9924 13.5863C37.0013 13.0954 37.3673 12.8008 37.9743 12.8008H46.0084C46.6155 12.8008 46.9815 13.1132 46.9725 13.5953C46.9636 14.0773 46.6155 14.354 45.9906 14.354C44.6337 14.363 43.3125 14.354 41.9557 14.354Z" fill="#05141F"/>
<path d="M42.0273 27.0932H45.8747C46.0381 27.0798 46.2023 27.0798 46.3657 27.0932C46.5267 27.1339 46.6702 27.2257 46.7746 27.3549C46.879 27.4841 46.9387 27.6436 46.9447 27.8096C46.9507 27.9755 46.9028 28.139 46.808 28.2754C46.7133 28.4118 46.5769 28.5138 46.4193 28.5661C46.2618 28.6058 46.0996 28.6238 45.9372 28.6197C43.2592 28.6197 40.6436 28.6197 37.9923 28.6197C37.7074 28.6345 37.4271 28.5422 37.2068 28.3608C37.1295 28.2453 37.0762 28.1155 37.0501 27.979C37.0241 27.8425 37.0257 27.7021 37.055 27.5663C37.1354 27.1825 37.4835 27.0664 37.8495 27.0664L42.0273 27.0932Z" fill="#05141F"/>
<path d="M41.956 21.4694H37.9657C37.3319 21.4694 36.9927 21.1838 37.0016 20.6839C37.0106 20.184 37.3766 19.9072 37.9836 19.9072H46.0177C46.6247 19.9072 46.9907 20.2107 46.9818 20.7017C46.9729 21.1927 46.6158 21.4694 45.9999 21.4694H41.956Z" fill="#05141F"/>
<path d="M34.3325 27.8781C34.6806 28.1816 34.9752 28.4137 35.2251 28.6815C35.309 28.7473 35.3779 28.8303 35.4271 28.9248C35.4764 29.0193 35.5049 29.1233 35.5109 29.2297C35.5168 29.3362 35.4999 29.4427 35.4614 29.5421C35.4229 29.6415 35.3637 29.7316 35.2876 29.8063C35.2156 29.8895 35.1265 29.9562 35.0263 30.0019C34.9262 30.0476 34.8175 30.0713 34.7074 30.0713C34.5973 30.0713 34.4886 30.0476 34.3884 30.0019C34.2883 29.9562 34.1992 29.8895 34.1272 29.8063C33.9926 29.6851 33.8645 29.557 33.7433 29.4224C33.6272 29.2885 33.5201 29.1457 33.3505 28.9314C33.0202 29.2796 32.7792 29.5652 32.4578 29.8241C32.3869 29.8996 32.3014 29.9599 32.2065 30.0015C32.1115 30.043 32.0092 30.065 31.9056 30.0659C31.802 30.0669 31.6993 30.0468 31.6036 30.007C31.508 29.9672 31.4214 29.9085 31.349 29.8343C31.2767 29.7602 31.2201 29.6722 31.1827 29.5755C31.1452 29.4789 31.1278 29.3758 31.1313 29.2722C31.1348 29.1687 31.1592 29.0669 31.2031 28.9731C31.247 28.8792 31.3094 28.7952 31.3866 28.7261C31.512 28.5755 31.6493 28.4352 31.7973 28.3066C31.9312 28.1905 32.0918 28.1012 32.3507 27.9227C31.949 27.5835 31.6544 27.3514 31.3955 27.0925C31.3104 27.0276 31.2404 26.945 31.1903 26.8504C31.1401 26.7558 31.1111 26.6514 31.1051 26.5445C31.0992 26.4376 31.1165 26.3307 31.1558 26.2311C31.1952 26.1316 31.2557 26.0417 31.3331 25.9677C31.4034 25.888 31.49 25.824 31.5869 25.7803C31.6839 25.7365 31.7891 25.7139 31.8954 25.7139C32.0018 25.7139 32.107 25.7365 32.204 25.7803C32.3009 25.824 32.3875 25.888 32.4578 25.9677C32.6007 26.0927 32.7435 26.2355 32.8774 26.3784C33.0113 26.5212 33.1006 26.6551 33.3059 26.914C33.6094 26.5569 33.8326 26.2623 34.0914 26.0213C34.1605 25.9441 34.2445 25.8817 34.3384 25.8378C34.4322 25.7939 34.534 25.7695 34.6375 25.766C34.7411 25.7624 34.8443 25.7799 34.9409 25.8173C35.0375 25.8548 35.1255 25.9114 35.1997 25.9837C35.2738 26.0561 35.3326 26.1427 35.3724 26.2383C35.4122 26.334 35.4322 26.4367 35.4312 26.5403C35.4303 26.6439 35.4084 26.7462 35.3668 26.8411C35.3253 26.936 35.2649 27.0215 35.1894 27.0925C34.9841 27.3246 34.6895 27.5567 34.3325 27.8781Z" fill="#05141F"/>
<path d="M31.8957 13.9437C32.6812 13.1492 33.3865 12.4351 34.1006 11.7298C34.2236 11.5648 34.4059 11.4539 34.6091 11.4206C34.8122 11.3873 35.0204 11.4342 35.1897 11.5513C35.2807 11.6077 35.3578 11.6838 35.4155 11.7741C35.4731 11.8643 35.5097 11.9663 35.5225 12.0726C35.5354 12.1789 35.5242 12.2867 35.4897 12.3881C35.4553 12.4894 35.3985 12.5818 35.3236 12.6582C34.3892 13.6402 33.4251 14.6073 32.4313 15.5594C32.366 15.6335 32.2856 15.6929 32.1956 15.7335C32.1055 15.7742 32.0079 15.7952 31.9091 15.7952C31.8103 15.7952 31.7126 15.7742 31.6226 15.7335C31.5326 15.6929 31.4522 15.6335 31.3869 15.5594C30.8602 15.0506 30.3335 14.5418 29.8336 14.0062C29.7574 13.9383 29.6964 13.8552 29.6547 13.7621C29.6129 13.669 29.5913 13.5681 29.5913 13.4661C29.5913 13.3641 29.6129 13.2632 29.6547 13.1701C29.6964 13.0771 29.7574 12.9939 29.8336 12.926C29.9037 12.852 29.9881 12.7931 30.0817 12.7528C30.1753 12.7125 30.2762 12.6917 30.3781 12.6917C30.4801 12.6917 30.5809 12.7125 30.6745 12.7528C30.7682 12.7931 30.8526 12.852 30.9227 12.926C31.244 13.2028 31.5386 13.5509 31.8957 13.9437Z" fill="#05141F"/>
<path d="M31.8956 21.0587L33.9219 19.0501C34.0313 18.9332 34.1476 18.8229 34.2701 18.7198C34.4119 18.5808 34.6026 18.5029 34.8012 18.5029C34.9998 18.5029 35.1905 18.5808 35.3324 18.7198C35.404 18.7867 35.4611 18.8675 35.5002 18.9573C35.5392 19.0472 35.5594 19.1441 35.5594 19.242C35.5594 19.34 35.5392 19.4369 35.5002 19.5268C35.4611 19.6166 35.404 19.6974 35.3324 19.7643C34.398 20.7284 33.4458 21.6806 32.4758 22.6208C32.4096 22.6951 32.3285 22.7546 32.2377 22.7953C32.147 22.836 32.0486 22.8571 31.9491 22.8571C31.8496 22.8571 31.7513 22.836 31.6605 22.7953C31.5697 22.7546 31.4886 22.6951 31.4224 22.6208C30.8779 22.1031 30.3512 21.5764 29.8335 21.0319C29.7618 20.9651 29.7047 20.8842 29.6657 20.7944C29.6266 20.7045 29.6064 20.6076 29.6064 20.5097C29.6064 20.4117 29.6266 20.3148 29.6657 20.2249C29.7047 20.1351 29.7618 20.0543 29.8335 19.9874C29.9021 19.911 29.9861 19.8499 30.0799 19.8081C30.1737 19.7662 30.2753 19.7446 30.378 19.7446C30.4807 19.7446 30.5823 19.7662 30.6761 19.8081C30.7699 19.8499 30.8539 19.911 30.9225 19.9874C31.2439 20.3088 31.5385 20.6748 31.8956 21.0587Z" fill="#05141F"/>
<path d="M10.7121 37.9749C9.76585 37.9749 8.81961 38.0196 7.88229 37.9749C6.76644 37.9035 6.31117 37.359 6.30225 36.2431C6.30225 35.7165 6.30225 35.1987 6.30225 34.681C6.30776 34.4241 6.37037 34.1716 6.48552 33.942C6.60068 33.7123 6.7655 33.5111 6.96803 33.353C7.17057 33.1949 7.40575 33.0838 7.65652 33.0279C7.90729 32.9719 8.16737 32.9725 8.4179 33.0295C9.74799 33.3062 11.0959 33.583 12.4082 33.9222C13.067 34.0609 13.653 34.4344 14.057 34.9731C14.461 35.5117 14.6554 36.1788 14.6042 36.8502C14.6042 37.5732 14.2739 37.9571 13.5597 38.0017C12.6671 38.0553 11.6762 38.0017 10.7389 38.0017L10.7121 37.9749ZM13.0598 36.4842C13.0384 36.2347 12.9415 35.9978 12.782 35.8048C12.6226 35.6118 12.4081 35.472 12.1672 35.404C10.846 35.0827 9.48912 34.8059 8.17688 34.5113C8.07868 34.5113 7.83766 34.672 7.83766 34.7613C7.83766 35.3148 7.83766 35.8593 7.83766 36.4574L13.0598 36.4842Z" fill="#05141F"/>
<path d="M22.5937 37.2427H27.1195C27.2976 37.2248 27.4771 37.2248 27.6552 37.2427C27.8184 37.2662 27.9678 37.3477 28.0759 37.4723C28.1841 37.5968 28.2439 37.7561 28.2443 37.9211C28.2693 38.0844 28.2355 38.2513 28.1488 38.3919C28.0622 38.5325 27.9283 38.6378 27.7712 38.6888C27.5864 38.7464 27.3934 38.7735 27.1999 38.7692H17.6482C17.1394 38.7156 16.8805 38.4656 16.8716 38.0104C16.8649 37.9035 16.8812 37.7965 16.9193 37.6965C16.9575 37.5965 17.0166 37.5058 17.0927 37.4305C17.1688 37.3553 17.2602 37.2972 17.3606 37.2602C17.461 37.2231 17.5682 37.208 17.675 37.2159C18.7908 37.2159 19.9156 37.2159 21.0315 37.2159L22.5937 37.2427Z" fill="#05141F"/>
<path d="M22.558 40.2871H27.2892C27.9052 40.2871 28.2623 40.5728 28.2533 41.0548C28.2444 41.5369 27.8873 41.8404 27.2803 41.8404H17.8536C17.2109 41.8404 16.8984 41.5815 16.8984 41.0637C16.8984 40.546 17.2287 40.2871 17.8625 40.2871H22.558Z" fill="#05141F"/>
<path d="M38.2693 2.99911C38.3663 2.99172 38.4638 3.00448 38.5557 3.0366C38.6475 3.06872 38.7317 3.11949 38.803 3.18573C38.8742 3.25196 38.931 3.33223 38.9698 3.42148C39.0085 3.51073 39.0284 3.60703 39.0281 3.70433C39.0305 3.90965 38.9525 4.10777 38.8107 4.25627C38.6689 4.40476 38.4745 4.49183 38.2693 4.49881C38.1697 4.50118 38.0705 4.4839 37.9775 4.44794C37.8846 4.41199 37.7996 4.35806 37.7275 4.28926C37.6554 4.22045 37.5975 4.13811 37.5572 4.04693C37.5169 3.95576 37.495 3.85754 37.4927 3.75789C37.5057 3.55788 37.5922 3.36975 37.7356 3.22969C37.879 3.08962 38.0691 3.00749 38.2693 2.99911Z" fill="#05141F"/>
</g>
<defs>
<clipPath id="clip0_289_9438">
<rect width="50" height="50" fill="white"/>
</clipPath>
</defs>
</svg>
