<svg width="50" height="50" viewBox="0 0 50 50" fill="none" xmlns="http://www.w3.org/2000/svg">
<path fill-rule="evenodd" clip-rule="evenodd" d="M10.3867 7.535C14.0467 4.695 18.6907 3 23.7567 3C29.0497 3 33.8937 4.85 37.6347 7.929L36.3647 9.473C32.9737 6.683 28.5767 5 23.7567 5C19.1437 5 14.9287 6.542 11.6127 9.115L10.3867 7.535Z" fill="#05141F"/>
<path fill-rule="evenodd" clip-rule="evenodd" d="M36.0712 8.07V2H38.0712V10.07H30.0002V8.07H36.0712ZM38.6132 41.589C34.9532 44.429 30.3092 46.124 25.2432 46.124C19.9502 46.124 15.1062 44.274 11.3652 41.196L12.6352 39.651C16.0262 42.441 20.4232 44.124 25.2432 44.124C29.8562 44.124 34.0712 42.582 37.3872 40.009L38.6132 41.589Z" fill="#05141F"/>
<path fill-rule="evenodd" clip-rule="evenodd" d="M12.5352 40.5352V46.6052H10.5352V38.5352H18.6052V40.5352H12.5352Z" fill="#05141F"/>
<path d="M11.0748 16.877C15.2728 16.042 19.5958 16 23.9068 16C26.4368 16 28.9938 16.74 31.2108 17.667C32.0838 18.031 32.9508 18.567 33.7368 19.054C33.9788 19.204 34.2128 19.348 34.4368 19.482C35.4558 20.088 36.3568 20.527 37.2768 20.63C38.6298 20.78 42.4228 21.513 43.6068 21.81C44.9498 22.146 45.9408 22.815 46.5598 23.28C47.1648 23.735 47.4668 24.476 47.6378 25.089C47.8208 25.743 47.9118 26.473 47.9578 27.129C48.0038 27.792 48.0048 28.417 47.9958 28.873C47.9848 29.443 47.9388 30.009 47.8998 30.577L40.9668 30.528C41.0552 29.8509 40.9706 29.1625 40.7208 28.527L46.0008 28.564C46.0028 28.188 45.9948 27.735 45.9618 27.268C45.9208 26.676 45.8418 26.096 45.7118 25.626C45.5688 25.116 45.4148 24.922 45.3578 24.879C44.8238 24.478 44.0848 23.991 43.1218 23.749C41.9998 23.469 38.2978 22.756 37.0558 22.618C35.6808 22.464 34.4658 21.827 33.4138 21.2C33.1218 21.026 32.8438 20.855 32.5778 20.69C31.8258 20.226 31.1528 19.81 30.4398 19.512C28.3518 18.64 26.0698 18 23.9068 18C19.5628 18 15.4118 18.047 11.4198 18.847L11.3698 18.857L11.3188 18.862C10.8838 18.904 10.2428 19.034 9.63281 19.169C9.36724 19.2269 9.1019 19.2859 8.83681 19.346L8.75281 19.363C8.00513 20.3731 7.37129 21.4627 6.86281 22.612C6.02581 24.528 5.62481 26.602 6.46681 28.286L9.37581 28.306C9.08329 28.9292 8.95786 29.6177 9.01181 30.304L5.35181 30.278L5.05781 29.835C3.29581 27.185 4.05581 24.042 5.02881 21.812C5.46764 20.821 5.9902 19.8692 6.59081 18.967C6.83161 18.6035 7.0851 18.2487 7.35081 17.903L7.41381 17.823L7.72081 17.445H8.14581L8.1708 17.44C8.22781 17.43 8.30781 17.413 8.41381 17.39L8.80381 17.304L9.20381 17.215C9.77881 17.089 10.5078 16.935 11.0748 16.877Z" fill="#05141F"/>
<path d="M33.3024 28.4744L16.6494 28.3574C16.7858 28.6603 16.8835 28.9791 16.9404 29.3064L16.9444 29.3284V29.3294C16.9531 29.3813 16.9611 29.4333 16.9684 29.4854V29.4934C16.9911 29.6615 17.0021 29.8309 17.0014 30.0004C17.0014 30.1214 16.9954 30.2414 16.9854 30.3604L33.0294 30.4734C32.9481 29.7949 33.0424 29.1069 33.3034 28.4754L33.3024 28.4744Z" fill="#05141F"/>
<path fill-rule="evenodd" clip-rule="evenodd" d="M16.9444 29.3286L16.9414 29.3066C16.9414 29.3146 16.9434 29.3216 16.9454 29.3296L16.9444 29.3286ZM16.9694 29.4936L16.9734 29.5266L16.9694 29.4936Z" fill="#05141F"/>
<path fill-rule="evenodd" clip-rule="evenodd" d="M12.9995 31.999C13.53 31.999 14.0387 31.7883 14.4137 31.4133C14.7888 31.0382 14.9995 30.5295 14.9995 29.999C14.9995 29.4686 14.7888 28.9599 14.4137 28.5848C14.0387 28.2098 13.53 27.999 12.9995 27.999C12.4691 27.999 11.9604 28.2098 11.5853 28.5848C11.2102 28.9599 10.9995 29.4686 10.9995 29.999C10.9995 30.5295 11.2102 31.0382 11.5853 31.4133C11.9604 31.7883 12.4691 31.999 12.9995 31.999ZM12.9995 33.999C14.0605 33.999 15.0781 33.5776 15.8283 32.8273C16.5785 32.0771 17 31.0595 17 29.9985C17 28.9375 16.5785 27.92 15.8283 27.1698C15.0781 26.4195 14.0605 25.998 12.9995 25.998C11.9385 25.998 10.921 26.4195 10.1707 27.1698C9.4205 27.92 8.99902 28.9375 8.99902 29.9985C8.99902 31.0595 9.4205 32.0771 10.1707 32.8273C10.921 33.5776 11.9385 33.999 12.9995 33.999ZM36.9995 31.999C37.53 31.999 38.0387 31.7883 38.4137 31.4133C38.7888 31.0382 38.9995 30.5295 38.9995 29.999C38.9995 29.4686 38.7888 28.9599 38.4137 28.5848C38.0387 28.2098 37.53 27.999 36.9995 27.999C36.4691 27.999 35.9604 28.2098 35.5853 28.5848C35.2102 28.9599 34.9995 29.4686 34.9995 29.999C34.9995 30.5295 35.2102 31.0382 35.5853 31.4133C35.9604 31.7883 36.4691 31.999 36.9995 31.999ZM36.9995 33.999C38.0604 33.999 39.0778 33.5776 39.8279 32.8275C40.5781 32.0773 40.9995 31.0599 40.9995 29.999C40.9995 28.9382 40.5781 27.9208 39.8279 27.1706C39.0778 26.4205 38.0604 25.999 36.9995 25.999C35.9387 25.999 34.9212 26.4205 34.1711 27.1706C33.421 27.9208 32.9995 28.9382 32.9995 29.999C32.9995 31.0599 33.421 32.0773 34.1711 32.8275C34.9212 33.5776 35.9387 33.999 36.9995 33.999Z" fill="#05141F"/>
</svg>
