<svg width="50" height="50" viewBox="0 0 50 50" fill="none" xmlns="http://www.w3.org/2000/svg">
<path d="M8.97791 39C8.97791 40.4 9.05802 43 9.37846 43H13.384C13.5175 43 13.7845 42.88 13.7845 42.4V39.8M8.97791 39C8.97791 39 7.97565 31 8.57654 29.8C9.37771 28.2 10.9799 27 11.3805 26.2C11.781 25.4 14.5849 20.6 16.1871 19.8C17.4689 19.16 22.5959 19 24.9993 19M8.97791 39C8.97791 39 8.9771 39.8 11.3804 39.8H24.9992M41.0221 39C41.0221 40.4 40.942 43 40.6215 43H36.616C36.4825 43 36.2155 42.88 36.2155 42.4V39.8M41.0221 39C41.0221 39 42.0243 31 41.4235 29.8C40.6223 28.2 39.0201 27 38.6195 26.2C38.219 25.4 35.4151 20.6 33.8129 19.8C32.5311 19.16 27.4041 19 25.0007 19M41.0221 39C41.0221 39 41.0229 39.8 38.6196 39.8H25.0008M10.4471 28.2C10.4471 28.2 11.4577 28.6382 12.1823 29C13.7845 29.8 14.1851 30.2 14.1851 30.6C14.1851 31.6937 9.28852 32.0194 8.978 31.4C8.79887 31.0427 8.69984 29.8854 8.64508 29.5638M11.7818 25.4L17.0944 25.8823C22.354 26.3598 27.646 26.3598 32.9056 25.8823L38.2182 25.4M11.7819 25C11.5149 24.8667 10.8206 24.6 10.1797 24.6C9.53881 24.6 8.57748 24.8667 8.17693 25C8.04342 25.2667 7.85649 25.88 8.17693 26.2C8.49737 26.52 10.1796 26.8667 10.9807 27M39.5529 28.2C39.5529 28.2 38.5423 28.6382 37.8177 29C36.2155 29.8 35.8149 30.2 35.8149 30.6C35.8149 31.6937 40.7115 32.0194 41.022 31.4C41.1583 31.1281 41.2482 30.0562 41.3076 29.8M38.2181 25C38.4851 24.8667 39.1794 24.6 39.8203 24.6C40.4612 24.6 41.4225 24.8667 41.8231 25C41.9566 25.2667 42.1435 25.88 41.8231 26.2C41.5026 26.52 39.8204 26.8667 39.0193 27M19.4892 31C18.6881 31 17.8876 31 17.4864 31.4C17.203 31.6826 16.0015 33.1172 16.2847 33.4C16.6854 33.8 20.6913 35 21.4924 34.6C22.2935 34.2 22.2935 34.2 22.6941 34.2H27.0996C27.5002 34.2 27.5002 34.2 28.3013 34.6C29.1024 35 33.1083 33.8 33.5089 33.4C33.7922 33.1172 32.5907 31.6826 32.3073 31.4C31.9061 31 31.1056 31 30.3045 31C26.6209 31 23.1412 31 19.4892 31Z" stroke="#05141F" stroke-width="2"/>
<path d="M2 46V14L25 3L48 14V46" stroke="#05141F" stroke-width="2"/>
</svg>
