<svg width="50" height="50" viewBox="0 0 50 50" fill="none" xmlns="http://www.w3.org/2000/svg">
<g clip-path="url(#clip0_302_10876)">
<path d="M50 25C50 29.9467 48.5325 34.7822 45.7833 38.8945C43.034 43.0068 39.1266 46.2111 34.5555 48.1018C29.9844 49.9925 24.9552 50.4846 20.1043 49.516C15.2534 48.5473 10.799 46.1613 7.30466 42.66C3.81034 39.1586 1.43327 34.6994 0.474298 29.8466C-0.484678 24.9938 0.0175444 19.9655 1.9174 15.3983C3.81726 10.831 7.02936 6.93 11.1472 4.18898C15.265 1.44797 20.1034 -0.0098433 25.05 5.00228e-05C31.6718 0.0132935 38.0178 2.65306 42.6954 7.34003C47.373 12.027 50 18.3783 50 25ZM25 2.27005C20.5044 2.27005 16.1098 3.60314 12.3719 6.10075C8.63397 8.59835 5.72061 12.1483 4.00023 16.3017C2.27985 20.455 1.82972 25.0253 2.70676 29.4345C3.5838 33.8436 5.74863 37.8937 8.92747 41.0726C12.1063 44.2514 16.1564 46.4163 20.5656 47.2933C24.9748 48.1703 29.545 47.7202 33.6984 45.9998C37.8518 44.2795 41.4017 41.3661 43.8993 37.6282C46.3969 33.8902 47.73 29.4956 47.73 25C47.7247 18.9733 45.3283 13.1949 41.0667 8.93336C36.8051 4.67181 31.0268 2.27535 25 2.27005Z" fill="#05141F"/>
<path d="M19.5295 32.4702L31.3695 20.7602L36.7195 15.4502C36.7795 15.4502 36.8295 15.3402 36.8795 15.2902C37.5195 14.6802 38.2095 14.6202 38.6895 15.1302C39.1695 15.6402 39.1195 16.2702 38.4995 16.8902L34.4095 21.0002L19.9995 35.2002L19.5395 35.6402C19.4095 35.5402 19.2695 35.4502 19.1495 35.3402L12.2195 28.4702C11.9828 28.2861 11.8273 28.0169 11.7862 27.7199C11.7452 27.4229 11.8217 27.1216 11.9995 26.8802C12.1026 26.7317 12.2402 26.6103 12.4004 26.5265C12.5606 26.4427 12.7387 26.3989 12.9195 26.3989C13.1003 26.3989 13.2785 26.4427 13.4387 26.5265C13.5989 26.6103 13.7364 26.7317 13.8395 26.8802C15.5595 28.5602 17.2695 30.2702 18.9895 31.9602C19.1295 32.0902 19.3095 32.2502 19.5295 32.4702Z" fill="#05141F"/>
</g>
<defs>
<clipPath id="clip0_302_10876">
<rect width="50" height="50" fill="white"/>
</clipPath>
</defs>
</svg>
