<svg width="50" height="50" viewBox="0 0 50 50" fill="none" xmlns="http://www.w3.org/2000/svg">
<g clip-path="url(#clip0_235_7465)">
<path d="M9.55778 7.81343C8.89379 8.37017 8.38645 9.09043 8.08584 9.90313C7.78523 10.7158 7.70174 11.5929 7.84361 12.4477C8.10567 13.838 8.80384 15.1086 9.83683 16.0753C9.93498 16.1936 10.0565 16.2903 10.1937 16.3594C10.331 16.4284 10.481 16.4685 10.6345 16.4769C10.7879 16.4853 10.9414 16.4619 11.0854 16.4083C11.2294 16.3546 11.3608 16.2718 11.4713 16.165C11.5805 16.0516 11.6657 15.9171 11.7216 15.7698C11.7774 15.6225 11.8029 15.4654 11.7964 15.308C11.7899 15.1506 11.7515 14.9961 11.6836 14.854C11.6158 14.7118 11.5198 14.5848 11.4015 14.4808C10.9608 13.976 10.5765 13.4246 10.2554 12.8364C10.0143 12.3761 9.92306 11.852 9.99454 11.3373C10.066 10.8227 10.2966 10.3432 10.654 9.96611C11.0168 9.56191 11.4028 9.17922 11.8101 8.82001C12.4695 8.24129 12.9808 7.51327 13.3016 6.69671C13.6223 5.88014 13.7431 4.99872 13.6539 4.12597C13.5637 3.28297 13.2804 2.47212 12.8258 1.7565C12.3712 1.04089 11.7576 0.439798 11.0328 0L10.4547 0C9.94646 0.318916 9.67737 0.627865 9.62754 0.926849C9.63317 1.1679 9.68929 1.4051 9.79229 1.62311C9.89529 1.84113 10.0429 2.03512 10.2255 2.19255C10.6145 2.64332 10.949 3.1384 11.2221 3.66753C11.4668 4.12359 11.5646 4.64411 11.5022 5.15788C11.4397 5.67166 11.2201 6.1536 10.8733 6.53777C10.582 6.86391 10.2726 7.17336 9.94646 7.46462L9.55778 7.81343Z" fill="#05141F"/>
<path d="M19.0951 7.77357C18.5073 8.25503 18.0373 8.86453 17.7212 9.55546C17.4051 10.2464 17.2512 11.0005 17.2713 11.76C17.322 12.6272 17.5551 13.474 17.9552 14.245C18.3553 15.016 18.9135 15.6941 19.5934 16.2348C19.8628 16.4147 20.1916 16.4827 20.5103 16.4242C20.6818 16.3956 20.8429 16.3226 20.9776 16.2124C21.1122 16.1023 21.2156 15.9588 21.2776 15.7963C21.3435 15.5915 21.3561 15.3733 21.3143 15.1624C21.2724 14.9514 21.1775 14.7545 21.0385 14.5904C20.5484 14.0233 20.1207 13.4052 19.7628 12.7467C19.5241 12.3046 19.4294 11.799 19.4919 11.3005C19.5545 10.802 19.7711 10.3355 20.1116 9.96611C20.4006 9.63723 20.7195 9.33825 21.0285 9.04923L21.4072 8.69045C22.1678 8.06478 22.7201 7.2225 22.9907 6.27549C23.2613 5.32848 23.2373 4.32156 22.9221 3.38848C22.5735 1.9818 21.6905 0.766322 20.4604 0L19.9322 0C19.4339 0.289017 19.1449 0.588001 19.0951 0.89695C19.0948 1.13997 19.1462 1.38028 19.2458 1.60193C19.3455 1.82358 19.4911 2.02151 19.6731 2.18258C20.0678 2.64715 20.4026 3.15943 20.6697 3.70739C20.9084 4.16589 20.9992 4.68706 20.9296 5.19925C20.86 5.71144 20.6334 6.18949 20.281 6.56767C20.0005 6.8781 19.7045 7.17414 19.394 7.45465L19.0951 7.77357Z" fill="#05141F"/>
<path d="M28.5727 7.78354C28.0389 8.23183 27.6032 8.78532 27.2929 9.40947C26.9825 10.0336 26.8041 10.715 26.7688 11.4112C26.7602 12.3433 26.966 13.2649 27.3704 14.1047C27.7748 14.9446 28.3669 15.6802 29.1009 16.2547C29.3629 16.416 29.6736 16.4796 29.9779 16.4341C30.1542 16.4079 30.3202 16.3349 30.4587 16.2227C30.5971 16.1106 30.703 15.9633 30.7652 15.7963C30.836 15.5968 30.853 15.3821 30.8145 15.1739C30.776 14.9657 30.6834 14.7714 30.546 14.6103L30.4762 14.5306C30.0451 14.0409 29.6582 13.514 29.3201 12.956C29.0388 12.4775 28.9224 11.9198 28.9891 11.3688C29.0557 10.8178 29.3016 10.3039 29.6889 9.90632C30.0078 9.54754 30.3566 9.23859 30.6855 8.90971L30.8948 8.67052C31.5326 8.08248 32.0209 7.35071 32.319 6.53603C32.6171 5.72135 32.7165 4.84727 32.609 3.98645C32.5234 3.1606 32.2406 2.36741 31.7844 1.67367C31.3283 0.979918 30.7121 0.40592 29.9879 0L29.4796 0C29.2829 0.0772799 29.1047 0.195406 28.957 0.346582C28.8092 0.497758 28.6952 0.678547 28.6225 0.877018C28.6177 1.11978 28.666 1.36065 28.7642 1.58274C28.8623 1.80483 29.0078 2.00276 29.1906 2.16265C29.5815 2.62999 29.9161 3.1418 30.1872 3.68746C30.4299 4.14361 30.5248 4.66392 30.4587 5.17638C30.3927 5.68883 30.1689 6.16807 29.8184 6.54774C29.5356 6.87537 29.2292 7.18182 28.9016 7.46462L28.5727 7.78354Z" fill="#05141F"/>
<path d="M43.5519 24.5071C42.9639 24.4373 42.366 24.4174 41.7281 24.3974C41.4192 24.3974 41.1202 24.3974 40.8013 24.3974H40.4425V23.3111C40.4425 22.185 40.0837 21.8262 38.9675 21.8262H1.43512C0.438509 21.8262 0.0199322 22.2248 0.0199322 23.2314C0.0199322 23.929 0.0199322 24.6267 0.0199322 25.3143C0 27.0683 0 28.9021 0 30.6562C0.0184514 32.036 0.168625 33.4109 0.448475 34.7622C0.994841 37.2315 2.03033 39.5664 3.49383 41.629C4.95733 43.6916 6.81918 45.4401 8.9695 46.7714L9.25852 46.9707L10.4046 47.8078H1.13614C0.95559 47.8051 0.777206 47.8474 0.617117 47.9309C0.457029 48.0144 0.320285 48.1366 0.219255 48.2862C0.120633 48.4305 0.0582661 48.5964 0.0374464 48.7699C0.0166267 48.9434 0.0379686 49.1193 0.0996612 49.2828C0.219255 49.5918 0.478373 50.0004 1.42515 50.0004H39.416C39.6055 49.9841 39.7877 49.9197 39.9454 49.8133C40.103 49.7068 40.2308 49.5618 40.3167 49.3921C40.4025 49.2224 40.4436 49.0335 40.436 48.8435C40.4283 48.6534 40.3723 48.4684 40.2731 48.3061C40.1649 48.1426 40.0163 48.0099 39.8417 47.9208C39.667 47.8318 39.4723 47.7894 39.2765 47.7979H30.4664L31.2039 46.9408L31.5826 46.6916C34.3591 44.9228 36.6371 42.4732 38.2001 39.5758C38.305 39.349 38.4768 39.1597 38.6923 39.0332C38.9078 38.9068 39.1569 38.8492 39.406 38.8682H40.4026C41.5542 38.9045 42.7068 38.8545 43.8509 38.7187C45.5411 38.4436 47.0757 37.5689 48.1738 36.2549C49.2719 34.9408 49.86 33.2753 49.8306 31.5631C49.8069 29.8287 49.1592 28.1608 48.0062 26.865C46.8531 25.5692 45.2718 24.7321 43.5519 24.5071ZM38.2001 26.9089C38.2001 28.6729 38.2001 30.4967 38.1104 32.2806C37.9183 35.247 36.8461 38.0888 35.0309 40.4429C32.7054 43.6145 29.3928 45.9245 25.6129 47.0105C22.9691 47.8092 20.1796 48.0033 17.4507 47.5786C13.3172 47.0105 9.51107 45.0193 6.68726 41.9478C4.35439 39.5223 2.86858 36.4073 2.45166 33.068C2.32754 31.8694 2.26766 30.6651 2.27227 29.4602V28.4636C2.27227 27.5567 2.27227 26.6597 2.27227 25.7329V24.0685H38.0506L38.1304 24.3376C38.1803 24.4255 38.2045 24.5257 38.2001 24.6266V26.9089ZM47.4985 32.6294C47.2901 33.637 46.7749 34.5554 46.0237 35.2585C45.2724 35.9616 44.322 36.4148 43.3028 36.5561C42.8908 36.596 42.4822 36.6159 42.0769 36.6159H41.0803H40.1734H39.7349L39.7947 36.1873C39.8545 35.7289 39.9243 35.2705 39.994 34.812C40.1535 33.8154 40.3129 32.7391 40.3827 31.7026C40.4525 30.6661 40.4425 29.6296 40.3827 28.5334C40.3827 28.055 40.3827 27.5368 40.3827 27.0783V26.6996H41.1401C42.4802 26.553 43.8344 26.7879 45.0468 27.3773C45.9391 27.9017 46.6511 28.6846 47.0889 29.6224C47.5266 30.5602 47.6695 31.6087 47.4985 32.6294Z" fill="#05141F"/>
</g>
<defs>
<clipPath id="clip0_235_7465">
<rect width="50" height="50" fill="white"/>
</clipPath>
</defs>
</svg>
