<svg width="50" height="50" viewBox="0 0 50 50" fill="none" xmlns="http://www.w3.org/2000/svg">
<g clip-path="url(#clip0_282_9128)">
<path d="M49.97 26.5271C49.8401 27.4463 49.7502 28.3655 49.5904 29.2747C48.625 34.8987 45.736 40.0127 41.4174 43.7423C37.9478 46.8557 33.6459 48.8904 29.0381 49.5972C25.8829 50.1512 22.6492 50.0735 19.5243 49.3686C16.3995 48.6637 13.4455 47.3456 10.8338 45.4908C8.03728 43.6169 5.66249 41.1801 3.86123 38.3363C2.05996 35.4925 0.871844 32.3041 0.37281 28.975C-0.220549 25.6423 -0.104565 22.222 0.713194 18.9372C1.53095 15.6524 3.03211 12.5769 5.11872 9.91145C8.80323 4.9467 14.2345 1.56511 20.3156 0.449612C21.1849 0.279759 22.0841 0.209819 22.9933 0.0899224C23.1532 0.0899224 23.313 0.0299741 23.4629 0H26.5902C27.4395 0.109905 28.2987 0.189836 29.138 0.339707C34.2314 1.20053 38.9339 3.61564 42.6008 7.25395C46.2677 10.8923 48.7196 15.5757 49.6203 20.6622C49.7802 21.5714 49.8701 22.4906 50 23.4098L49.97 26.5271ZM24.9916 47.6989C29.4876 47.6989 33.8827 46.3655 37.6209 43.8674C41.3592 41.3693 44.2726 37.8187 45.9927 33.6647C47.7128 29.5107 48.1623 24.9398 47.2845 20.5303C46.4066 16.1208 44.2408 12.0706 41.0609 8.89211C37.881 5.71361 33.8298 3.54954 29.4199 2.67361C25.01 1.79768 20.4394 2.24924 16.2861 3.97119C12.1328 5.69313 8.58353 8.6081 6.08708 12.3474C3.59064 16.0867 2.2592 20.4824 2.26118 24.9785C2.26648 31.0044 4.6633 36.7818 8.92521 41.0419C13.1871 45.3019 18.9656 47.6962 24.9916 47.6989Z" fill="#05141F"/>
<path d="M17.1184 38.1368C16.9417 38.1328 16.7685 38.0863 16.6136 38.0011C16.4587 37.916 16.3266 37.7947 16.2285 37.6476C16.1305 37.5005 16.0693 37.332 16.0503 37.1562C16.0313 36.9805 16.055 36.8027 16.1193 36.638C16.1934 36.473 16.2838 36.3157 16.3891 36.1685L31.7958 12.5089C32.1854 11.9094 32.6051 11.6996 33.1146 11.8195C33.2696 11.8544 33.4152 11.9225 33.5413 12.0192C33.6674 12.1158 33.7711 12.2386 33.8452 12.3792C33.9192 12.5197 33.962 12.6747 33.9704 12.8333C33.9788 12.992 33.9527 13.1506 33.894 13.2982C33.8272 13.4618 33.7399 13.6162 33.6342 13.7578L18.2275 37.3874C18.1289 37.6019 17.9734 37.7852 17.7779 37.9173C17.5823 38.0495 17.3542 38.1254 17.1184 38.1368Z" fill="#05141F"/>
<path d="M14.2408 18.1048C14.2427 17.1943 14.5146 16.3047 15.0219 15.5486C15.5292 14.7924 16.2492 14.2036 17.0911 13.8565C17.9329 13.5095 18.8587 13.4197 19.7515 13.5985C20.6443 13.7774 21.4641 14.2168 22.1073 14.8614C22.7504 15.506 23.1881 16.3267 23.365 17.2199C23.542 18.1131 23.4502 19.0387 23.1012 19.8798C22.7523 20.7208 22.162 21.4396 21.4047 21.9453C20.6475 22.451 19.7574 22.7208 18.8468 22.7208C18.2407 22.7222 17.6403 22.6036 17.0803 22.372C16.5202 22.1403 16.0115 21.8002 15.5834 21.3712C15.1552 20.9422 14.8162 20.4327 14.5858 19.8721C14.3554 19.3115 14.2381 18.7109 14.2408 18.1048ZM21.2347 18.1048C21.2347 17.6349 21.0955 17.1756 20.8347 16.7848C20.5738 16.3939 20.203 16.0891 19.7691 15.9089C19.3351 15.7286 18.8575 15.6809 18.3965 15.7719C17.9355 15.8628 17.5118 16.0883 17.1789 16.4199C16.8459 16.7514 16.6186 17.1742 16.5258 17.6348C16.4329 18.0954 16.4785 18.5732 16.657 19.0079C16.8354 19.4426 17.1387 19.8147 17.5284 20.0772C17.9181 20.3397 18.3769 20.4808 18.8468 20.4828C19.474 20.4801 20.0748 20.2298 20.5183 19.7863C20.9618 19.3428 21.2121 18.742 21.2147 18.1148L21.2347 18.1048Z" fill="#05141F"/>
<path d="M30.8665 36.6984C29.956 36.6964 29.0664 36.4246 28.3103 35.9173C27.5542 35.41 26.9653 34.6899 26.6183 33.8481C26.2712 33.0063 26.1814 32.0805 26.3602 31.1876C26.5391 30.2948 26.9786 29.475 27.6231 28.8319C28.2677 28.1887 29.0884 27.751 29.9816 27.5741C30.8748 27.3972 31.8004 27.489 32.6415 27.8379C33.4825 28.1868 34.2013 28.7772 34.707 29.5344C35.2127 30.2917 35.4826 31.1818 35.4826 32.0923C35.4852 32.6988 35.3676 33.2998 35.1364 33.8604C34.9052 34.4211 34.5652 34.9304 34.1359 35.3588C33.7066 35.7871 33.1966 36.1261 32.6354 36.356C32.0742 36.586 31.473 36.7023 30.8665 36.6984ZM28.4986 32.1123C28.4999 32.4259 28.563 32.7362 28.6842 33.0254C28.8054 33.3146 28.9824 33.5771 29.2051 33.7979C29.4277 34.0187 29.6917 34.1935 29.9819 34.3123C30.2722 34.4311 30.5829 34.4916 30.8965 34.4903C31.5018 34.4511 32.0696 34.1829 32.4844 33.7404C32.8992 33.2978 33.1301 32.7139 33.1301 32.1073C33.1301 31.5007 32.8992 30.9169 32.4844 30.4743C32.0696 30.0317 31.5018 29.7636 30.8965 29.7244C30.581 29.719 30.2676 29.777 29.9749 29.895C29.6822 30.013 29.4161 30.1885 29.1925 30.4112C28.9689 30.6339 28.7923 30.8992 28.6731 31.1914C28.5539 31.4836 28.4945 31.7968 28.4986 32.1123Z" fill="#05141F"/>
</g>
<defs>
<clipPath id="clip0_282_9128">
<rect width="50" height="50" fill="white"/>
</clipPath>
</defs>
</svg>
