<svg width="50" height="50" viewBox="0 0 50 50" fill="none" xmlns="http://www.w3.org/2000/svg">
<g clip-path="url(#clip0_302_10863)">
<path d="M35.8994 43.8777V46.7696C35.8994 47.4277 35.8994 48.0759 35.8994 48.764C35.9156 48.9137 35.8977 49.0652 35.8471 49.2071C35.7964 49.349 35.7142 49.4775 35.6067 49.5831C35.4993 49.6886 35.3693 49.7685 35.2265 49.8166C35.0837 49.8647 34.9319 49.8799 34.7825 49.8609H1.53569C0.269245 49.8609 0 49.6016 0 48.3252V7.50962C0 6.26311 0.269245 5.98389 1.49581 5.98389H5.98323V5.36563C5.98323 4.05929 5.98323 2.75295 5.98323 1.44661C5.98323 0.319773 6.28239 0.000667638 7.39926 0.000667638H19.4455C23.1152 0.000667638 26.7849 0.000667638 30.4147 0.000667638C30.6934 -0.00654498 30.9705 0.0447499 31.2282 0.151242C31.4858 0.257735 31.7183 0.417059 31.9105 0.618934C34.3903 3.09865 36.87 5.55177 39.3497 7.9783C39.5334 8.14891 39.677 8.35815 39.7701 8.59094C39.8632 8.82373 39.9036 9.07428 39.8882 9.32453C39.8882 10.9201 39.8882 12.5156 39.8882 14.1111C42.706 14.5532 45.2732 15.9872 47.1272 18.1547C48.9812 20.3222 50 23.0807 50 25.933C50 28.7852 48.9812 31.5437 47.1272 33.7112C45.2732 35.8788 42.706 37.3128 39.8882 37.7548V42.6411C39.8882 43.5386 39.5392 43.8777 38.6317 43.8876C37.7242 43.8976 36.8966 43.8777 35.8994 43.8777ZM37.8938 37.8944C34.8188 37.8832 31.865 36.6946 29.6394 34.5728C27.4137 32.451 26.0854 29.5573 25.9273 26.4864C25.7669 23.7184 26.6095 20.9852 28.3007 18.788C29.4131 17.2918 30.8598 16.0762 32.5254 15.2382C34.191 14.4003 36.0293 13.9631 37.8938 13.9615V9.97271H31.2125C30.2652 9.97271 29.9161 9.66358 29.9161 8.71623V2.05491H7.97764V41.8833H37.8938V37.8944ZM37.8938 35.9C39.8661 35.9 41.794 35.3152 43.4339 34.2194C45.0738 33.1237 46.352 31.5663 47.1067 29.7441C47.8615 27.922 48.059 25.9169 47.6742 23.9825C47.2894 22.0481 46.3397 20.2713 44.9451 18.8767C43.5505 17.4821 41.7736 16.5323 39.8392 16.1475C37.9048 15.7628 35.8998 15.9603 34.0776 16.715C32.2555 17.4698 30.6981 18.7479 29.6023 20.3878C28.5066 22.0277 27.9217 23.9557 27.9217 25.928C27.9217 28.5727 28.9723 31.1092 30.8425 32.9793C32.7126 34.8494 35.249 35.9 37.8938 35.9ZM33.905 43.8777H7.54884C6.23253 43.8777 5.98323 43.6284 5.98323 42.332V8.04811H2.04427V47.8067H33.905V43.8777ZM31.9105 3.5906V7.9783H36.2783L31.9105 3.5906Z" fill="#05141F"/>
<path d="M18.9467 7.97924H13.3823C13.1669 8.00396 12.9494 8.00396 12.7341 7.97924C12.5041 7.94005 12.2974 7.81564 12.1551 7.63083C12.0128 7.44601 11.9454 7.21436 11.9662 6.98204C11.9417 6.75504 12.0028 6.52706 12.1374 6.34266C12.272 6.15825 12.4705 6.03066 12.6942 5.98483C12.8928 5.95948 13.0939 5.95948 13.2925 5.98483H24.6208C24.8364 5.97672 25.052 6.00366 25.259 6.06461C25.4708 6.12297 25.6543 6.25621 25.7753 6.43961C25.8964 6.623 25.9468 6.84408 25.9171 7.06181C25.9213 7.27439 25.8507 7.48169 25.7177 7.64754C25.5847 7.81339 25.3976 7.92725 25.1892 7.96927C24.9601 8.01964 24.7254 8.03976 24.4911 8.0291L18.9467 7.97924Z" fill="#05141F"/>
<path d="M18.9469 13.9622H13.3626C13.1801 13.9771 12.9966 13.9771 12.8141 13.9622C12.6126 13.9187 12.4296 13.8138 12.2901 13.662C12.1507 13.5102 12.0617 13.3189 12.0355 13.1144C12.0092 12.9099 12.047 12.7024 12.1436 12.5202C12.2402 12.3381 12.3908 12.1904 12.5748 12.0974C12.7997 12.023 13.0361 11.9892 13.2728 11.9977H24.641C24.7704 11.9877 24.9004 11.9877 25.0299 11.9977C25.2837 12.023 25.5183 12.1446 25.6852 12.3375C25.8522 12.5304 25.9388 12.7799 25.9274 13.0348C25.9097 13.287 25.7968 13.5231 25.6117 13.6952C25.4266 13.8674 25.183 13.9628 24.9302 13.9622C24.0626 13.9622 23.195 13.9622 22.3175 13.9622H18.9469Z" fill="#05141F"/>
<path d="M14.8188 27.3534L17.5711 24.6111C17.7076 24.4647 17.8542 24.3281 18.0099 24.2022C18.2041 24.0346 18.4556 23.9482 18.7119 23.9612C18.9682 23.9742 19.2097 24.0856 19.386 24.2721C19.5628 24.4575 19.6614 24.7039 19.6614 24.9601C19.6614 25.2163 19.5628 25.4627 19.386 25.6482C18.1428 26.918 16.883 28.1744 15.6066 29.4176C15.5186 29.5242 15.4082 29.61 15.2832 29.6689C15.1583 29.7278 15.0218 29.7584 14.8836 29.7584C14.7455 29.7584 14.609 29.7278 14.484 29.6689C14.359 29.61 14.2486 29.5242 14.1606 29.4176C13.5224 28.8193 12.9042 28.201 12.3058 27.5728C12.1961 27.485 12.1062 27.375 12.0419 27.25C11.9777 27.125 11.9406 26.9878 11.9331 26.8475C11.9256 26.7072 11.9478 26.5668 11.9983 26.4357C12.0488 26.3045 12.1265 26.1855 12.2262 26.0865C12.326 25.9875 12.4455 25.9107 12.577 25.8611C12.7085 25.8115 12.849 25.7903 12.9893 25.7988C13.1296 25.8073 13.2665 25.8454 13.391 25.9105C13.5155 25.9756 13.6249 26.0664 13.7119 26.1767C13.9113 26.3562 14.1008 26.5557 14.2903 26.7451C14.4798 26.9346 14.6194 27.134 14.8188 27.3534Z" fill="#05141F"/>
<path d="M14.8281 35.3121C15.7655 34.3747 16.653 33.4972 17.5505 32.6196C17.6834 32.4701 17.8266 32.3301 17.9793 32.2008C18.1747 32.0526 18.4178 31.9815 18.6623 32.0013C18.9068 32.021 19.1354 32.1302 19.3044 32.3079C19.4735 32.4856 19.5711 32.7194 19.5787 32.9645C19.5863 33.2097 19.5032 33.449 19.3454 33.6368C18.8269 34.1852 18.2684 34.7138 17.73 35.2522L15.6857 37.2467C15.5945 37.3824 15.4713 37.4936 15.3269 37.5705C15.1826 37.6474 15.0216 37.6877 14.858 37.6877C14.6945 37.6877 14.5334 37.6474 14.3891 37.5705C14.2448 37.4936 14.1215 37.3824 14.0303 37.2467C13.4719 36.6982 12.9234 36.1497 12.375 35.5913C12.2813 35.4996 12.2067 35.3904 12.1552 35.2699C12.1038 35.1494 12.0766 35.0199 12.0753 34.8889C12.0739 34.7578 12.0983 34.6278 12.1472 34.5062C12.196 34.3847 12.2683 34.2739 12.36 34.1803C12.4517 34.0866 12.5609 34.012 12.6814 33.9605C12.8019 33.9091 12.9314 33.8819 13.0624 33.8805C13.1935 33.8791 13.3235 33.9036 13.4451 33.9524C13.5667 34.0013 13.6774 34.0736 13.7711 34.1653C14.1201 34.5642 14.4492 34.9032 14.8281 35.3121Z" fill="#05141F"/>
<path d="M15.9557 19.9447C14.9585 19.9447 14.061 19.9447 13.1236 19.9447C12.98 19.968 12.8329 19.9595 12.6929 19.92C12.5528 19.8804 12.4231 19.8106 12.3129 19.7156C12.2027 19.6206 12.1146 19.5026 12.0548 19.3699C11.995 19.2372 11.965 19.093 11.9669 18.9475C11.9655 18.8039 11.9951 18.6617 12.0537 18.5306C12.1123 18.3995 12.1985 18.2827 12.3064 18.188C12.4144 18.0933 12.5415 18.023 12.6791 17.982C12.8167 17.941 12.9615 17.9301 13.1037 17.9503H18.8177C18.9591 17.9317 19.1028 17.9437 19.2392 17.9855C19.3756 18.0272 19.5014 18.0977 19.6082 18.1922C19.715 18.2867 19.8003 18.4031 19.8583 18.5333C19.9163 18.6636 19.9457 18.8048 19.9445 18.9475C19.9445 19.5458 19.5257 19.9447 18.8177 19.9447H15.9557Z" fill="#05141F"/>
<path d="M36.3381 27.6522L41.5734 22.4069C42.2714 21.7089 42.8199 21.6091 43.3085 22.0778C43.7972 22.5465 43.6775 23.1448 42.9994 23.813C41.1047 25.7176 39.2 27.6123 37.2954 29.517C36.5475 30.2649 36.1187 30.2649 35.3708 29.517L32.6384 26.7846C32.5157 26.7026 32.4127 26.5944 32.3369 26.4677C32.2611 26.341 32.2143 26.1991 32.2 26.0522C32.1857 25.9053 32.2042 25.757 32.2541 25.6181C32.3041 25.4792 32.3843 25.3531 32.4889 25.2489C32.9276 24.7902 33.4861 24.8401 34.0644 25.3885L36.3381 27.6522Z" fill="#05141F"/>
</g>
<defs>
<clipPath id="clip0_302_10863">
<rect width="50" height="50" fill="white"/>
</clipPath>
</defs>
</svg>
