<svg width="46" height="52" viewBox="0 0 46 52" fill="none" xmlns="http://www.w3.org/2000/svg">
<g clip-path="url(#clip0_302_10793)">
<path d="M41.65 15H38V2C38 1.46957 37.7893 0.960859 37.4142 0.585786C37.0391 0.210714 36.5304 0 36 0L2 0C1.46957 0 0.960859 0.210714 0.585786 0.585786C0.210714 0.960859 0 1.46957 0 2L0 50C0 50.5304 0.210714 51.0391 0.585786 51.4142C0.960859 51.7893 1.46957 52 2 52H36C36.5304 52 37.0391 51.7893 37.4142 51.4142C37.7893 51.0391 38 50.5304 38 50V37.69H41.65C42.558 37.69 43.4289 37.33 44.0718 36.6889C44.7148 36.0478 45.0774 35.178 45.08 34.27C45.08 28.99 45.08 23.7133 45.08 18.44C45.0813 17.9887 44.9936 17.5416 44.8218 17.1243C44.65 16.707 44.3976 16.3277 44.0789 16.0082C43.7603 15.6886 43.3817 15.435 42.9649 15.262C42.5481 15.089 42.1013 15 41.65 15ZM36 50H2V2H36V15H18.27C17.7407 14.9958 17.2182 15.119 16.7466 15.3592C16.2749 15.5994 15.8679 15.9495 15.56 16.38C15.2083 16.8619 14.966 17.4148 14.85 18V34.68C14.85 34.75 14.9 34.81 14.91 34.87C15.0582 35.6576 15.4752 36.3693 16.0899 36.8837C16.7045 37.398 17.4786 37.683 18.28 37.69C24.18 37.69 30.09 37.69 36 37.69V50ZM43.2 34.07C43.222 34.3044 43.1917 34.5408 43.1113 34.7621C43.0308 34.9834 42.9022 35.184 42.7348 35.3495C42.5674 35.5151 42.3652 35.6413 42.1431 35.7192C41.9209 35.7971 41.6841 35.8247 41.45 35.8C37.61 35.8 33.78 35.8 29.94 35.8H18.51C18.2677 35.83 18.0218 35.8039 17.7913 35.7236C17.5608 35.6433 17.3519 35.5109 17.1807 35.3369C17.0096 35.1628 16.8808 34.9517 16.8043 34.7199C16.7279 34.488 16.7059 34.2417 16.74 34V18.66C16.7145 18.4231 16.7426 18.1835 16.8222 17.9588C16.9018 17.7342 17.0308 17.5304 17.1998 17.3624C17.3688 17.1944 17.5733 17.0665 17.7984 16.9882C18.0234 16.9099 18.2632 16.8832 18.5 16.91H41.44C41.6768 16.8832 41.9166 16.9099 42.1416 16.9882C42.3667 17.0665 42.5712 17.1944 42.7402 17.3624C42.9092 17.5304 43.0382 17.7342 43.1178 17.9588C43.1974 18.1835 43.2255 18.4231 43.2 18.66V34.07Z" fill="#05141F"/>
<path d="M26.9202 27.66C26.0502 27.59 25.1702 27.66 24.3002 27.66H22.1202C21.6116 27.659 21.1089 27.7695 20.6476 27.9838C20.1863 28.198 19.7776 28.5108 19.4502 28.9C19.1169 29.3177 18.8738 29.8 18.7361 30.3163C18.5985 30.8326 18.5692 31.3718 18.6502 31.9C18.685 32.1343 18.8078 32.3464 18.9936 32.4932C19.1794 32.64 19.4142 32.7104 19.6502 32.69C19.8816 32.6704 20.099 32.5709 20.2651 32.4085C20.4311 32.2461 20.5355 32.031 20.5602 31.8C20.5602 31.59 20.5602 31.37 20.5602 31.15C20.5534 30.9401 20.5892 30.7311 20.6652 30.5353C20.7412 30.3396 20.8559 30.1612 21.0025 30.0109C21.1491 29.8605 21.3246 29.7413 21.5183 29.6604C21.7121 29.5795 21.9202 29.5386 22.1302 29.54C23.6002 29.54 25.0802 29.54 26.5502 29.54C26.7602 29.5386 26.9683 29.5795 27.162 29.6604C27.3558 29.7413 27.5313 29.8605 27.6779 30.0109C27.8245 30.1612 27.9392 30.3396 28.0152 30.5353C28.0912 30.7311 28.1269 30.9401 28.1202 31.15C28.1202 31.36 28.1202 31.57 28.1202 31.77C28.1391 32.0111 28.2448 32.2372 28.4176 32.4063C28.5905 32.5755 28.8187 32.6763 29.0602 32.69C29.3 32.6765 29.527 32.5772 29.6996 32.4101C29.8723 32.243 29.9789 32.0193 30.0002 31.78C30.0202 31.487 30.0202 31.193 30.0002 30.9C29.9651 30.0789 29.6338 29.2983 29.0675 28.7027C28.5013 28.107 27.7385 27.7366 26.9202 27.66Z" fill="#05141F"/>
<path d="M24.3002 26.3498C24.9237 26.3518 25.5337 26.1687 26.053 25.8238C26.5723 25.4789 26.9776 24.9876 27.2176 24.4122C27.4575 23.8368 27.5213 23.2031 27.4009 22.5914C27.2805 21.9797 26.9813 21.4175 26.5411 20.976C26.101 20.5344 25.5398 20.2334 24.9284 20.1111C24.3171 19.9887 23.6833 20.0505 23.1071 20.2886C22.5309 20.5267 22.0384 20.9305 21.6918 21.4487C21.3452 21.9669 21.1602 22.5764 21.1602 23.1998C21.1576 23.6134 21.2369 24.0233 21.3937 24.4061C21.5504 24.7888 21.7814 25.1366 22.0734 25.4295C22.3654 25.7224 22.7125 25.9546 23.0947 26.1125C23.4769 26.2705 23.8867 26.3511 24.3002 26.3498ZM24.3002 21.9398C24.4674 21.9424 24.6324 21.9782 24.7856 22.0452C24.9388 22.1122 25.0772 22.209 25.1926 22.33C25.308 22.451 25.3982 22.5937 25.4579 22.7499C25.5176 22.9061 25.5455 23.0727 25.5402 23.2398C25.5356 23.4039 25.4987 23.5656 25.4317 23.7155C25.3646 23.8654 25.2687 24.0006 25.1494 24.1134C25.03 24.2262 24.8897 24.3145 24.7362 24.373C24.5828 24.4316 24.4194 24.4594 24.2552 24.4548C24.0911 24.4502 23.9294 24.4133 23.7795 24.3462C23.6296 24.2792 23.4944 24.1832 23.3816 24.0639C23.2688 23.9446 23.1805 23.8042 23.122 23.6508C23.0634 23.4974 23.0356 23.3339 23.0402 23.1698C23.0481 22.8391 23.1857 22.5248 23.4233 22.2947C23.6609 22.0645 23.9795 21.9371 24.3102 21.9398H24.3002Z" fill="#05141F"/>
<path d="M33.4398 22.57H40.2498C40.4004 22.6221 40.5613 22.6375 40.7191 22.6148C40.8769 22.5921 41.027 22.5321 41.1569 22.4396C41.2867 22.3471 41.3926 22.2249 41.4657 22.0832C41.5387 21.9415 41.5768 21.7844 41.5768 21.625C41.5768 21.4656 41.5387 21.3085 41.4657 21.1668C41.3926 21.0251 41.2867 20.9029 41.1569 20.8104C41.027 20.718 40.8769 20.6579 40.7191 20.6352C40.5613 20.6125 40.4004 20.6279 40.2498 20.68H33.5598C33.45 20.6701 33.3395 20.6701 33.2298 20.68C33.0076 20.73 32.8111 20.8589 32.6769 21.0428C32.5426 21.2268 32.4797 21.4532 32.4998 21.68C32.5101 21.9214 32.614 22.1493 32.7895 22.3154C32.9649 22.4815 33.1982 22.5728 33.4398 22.57Z" fill="#05141F"/>
<path d="M40.3196 25.7196H33.4796C33.2541 25.7294 33.0359 25.8022 32.8496 25.9296C32.6976 26.0411 32.5855 26.1984 32.5297 26.3785C32.4739 26.5585 32.4774 26.7517 32.5396 26.9296C32.5979 27.1195 32.7161 27.2854 32.8765 27.4026C33.0369 27.5197 33.2309 27.5818 33.4296 27.5796H40.2996C40.4318 27.5932 40.5655 27.5789 40.6919 27.5376C40.8183 27.4963 40.9346 27.429 41.0333 27.3399C41.132 27.2508 41.211 27.142 41.265 27.0205C41.319 26.899 41.3469 26.7675 41.3469 26.6346C41.3469 26.5016 41.319 26.3701 41.265 26.2486C41.211 26.1271 41.132 26.0183 41.0333 25.9292C40.9346 25.8402 40.8183 25.7728 40.6919 25.7315C40.5655 25.6902 40.4318 25.6759 40.2996 25.6896L40.3196 25.7196Z" fill="#05141F"/>
<path d="M40.3801 30.7701H33.5101C33.381 30.7588 33.251 30.7749 33.1286 30.8173C33.0061 30.8597 32.8941 30.9275 32.7997 31.0163C32.7052 31.105 32.6306 31.2127 32.5807 31.3323C32.5308 31.4518 32.5068 31.5806 32.5101 31.7101C32.5084 31.8396 32.5336 31.968 32.5839 32.0874C32.6342 32.2067 32.7087 32.3143 32.8026 32.4035C32.8965 32.4927 33.0078 32.5616 33.1295 32.6057C33.2513 32.6499 33.3808 32.6684 33.5101 32.6601H40.2601C40.4539 32.6575 40.6449 32.6131 40.8201 32.5301C40.9925 32.4338 41.1293 32.2846 41.2103 32.1045C41.2914 31.9244 41.3123 31.723 41.2701 31.5301C41.2295 31.3215 41.1194 31.1327 40.9578 30.9947C40.7961 30.8567 40.5925 30.7775 40.3801 30.7701Z" fill="#05141F"/>
</g>
<defs>
<clipPath id="clip0_302_10793">
<rect width="45.09" height="52" fill="white"/>
</clipPath>
</defs>
</svg>
