<svg width="13" height="16" viewBox="0 0 13 16" fill="none" xmlns="http://www.w3.org/2000/svg">
<path d="M2.28 0H10.72C11.0476 0.0347629 11.3533 0.180791 11.5863 0.413726C11.8192 0.646661 11.9652 0.952419 12 1.28C12 1.55 12 13.16 12 15H12.51C12.6334 15.0069 12.75 15.0584 12.8383 15.1448C12.9266 15.2312 12.9805 15.3468 12.99 15.47C12.9947 15.5913 12.956 15.7103 12.8809 15.8056C12.8057 15.9009 12.699 15.9663 12.58 15.99H0.64C0.507735 16.0052 0.374085 15.9775 0.258824 15.9108C0.143562 15.8442 0.0528119 15.7422 0 15.62L0 15.37C0.0485616 15.2446 0.138479 15.1396 0.254867 15.0723C0.371254 15.0051 0.50713 14.9795 0.64 15H1V1.46C1.00481 1.2117 1.07245 0.968657 1.1966 0.753568C1.32076 0.538479 1.49739 0.358353 1.71 0.23C1.89494 0.141334 2.08532 0.0645126 2.28 0V0ZM11 15V1.59C11 1.19 10.81 1 10.4 1H2.59C2.50979 0.988228 2.42795 0.995371 2.351 1.02086C2.27404 1.04635 2.20411 1.08947 2.14679 1.14679C2.08947 1.20411 2.04635 1.27404 2.02086 1.351C1.99537 1.42795 1.98823 1.5098 2 1.59V15H11Z" fill="#05141F"/>
<path d="M6.48957 2.00045H9.40957C9.48921 1.98684 9.57094 1.99235 9.64803 2.01652C9.72513 2.04069 9.79537 2.08283 9.85299 2.13947C9.9106 2.19611 9.95394 2.26563 9.97942 2.34229C10.0049 2.41896 10.0118 2.50059 9.99957 2.58045V6.91045C10.0132 6.99009 10.0077 7.07182 9.9835 7.14891C9.95933 7.22601 9.91719 7.29625 9.86055 7.35387C9.80391 7.41148 9.73439 7.45482 9.65772 7.4803C9.58106 7.50579 9.49943 7.51269 9.41957 7.50045H3.56957C3.49144 7.51056 3.41203 7.50242 3.33757 7.47669C3.2631 7.45096 3.19562 7.40833 3.14039 7.35214C3.08517 7.29595 3.04372 7.22773 3.01929 7.15283C2.99485 7.07793 2.98811 6.99839 2.99957 6.92045V2.58045C2.98811 2.5025 2.99485 2.42296 3.01929 2.34807C3.04372 2.27317 3.08517 2.20495 3.14039 2.14876C3.19562 2.09257 3.2631 2.04994 3.33757 2.0242C3.41203 1.99847 3.49144 1.99034 3.56957 2.00045H6.48957ZM3.99957 6.49045H8.99957V3.00045H3.99957V6.49045Z" fill="#05141F"/>
</svg>
