<svg width="51" height="50" viewBox="0 0 51 50" fill="none" xmlns="http://www.w3.org/2000/svg">
<path d="M14.667 21H6.66699C6.11471 21 5.66699 21.4477 5.66699 22V40C5.66699 40.5523 6.11471 41 6.66699 41H14.667C15.2193 41 15.667 40.5523 15.667 40V22C15.667 21.4477 15.2193 21 14.667 21Z" stroke="#05141F" stroke-width="2"/>
<path d="M28.667 13H20.667C20.1147 13 19.667 13.4477 19.667 14V40C19.667 40.5523 20.1147 41 20.667 41H28.667C29.2193 41 29.667 40.5523 29.667 40V14C29.667 13.4477 29.2193 13 28.667 13Z" stroke="#05141F" stroke-width="2"/>
<path d="M42.667 5H34.667C34.1147 5 33.667 5.44772 33.667 6V40C33.667 40.5523 34.1147 41 34.667 41H42.667C43.2193 41 43.667 40.5523 43.667 40V6C43.667 5.44772 43.2193 5 42.667 5Z" stroke="#05141F" stroke-width="2"/>
<path d="M5.66699 46H43.667" stroke="#05141F" stroke-width="2"/>
</svg>
