<svg width="21" height="27" viewBox="0 0 21 27" fill="none" xmlns="http://www.w3.org/2000/svg">
<path d="M0 16.8543V13.8808H2.64212V0.5H10.2162C13.4259 0.5 15.8984 1.04998 17.6337 2.14993C19.8779 3.56416 21 5.6311 21 8.35077C21 10.7078 20.1715 12.6358 18.5144 14.1346C17.5359 15.0411 16.3812 15.712 15.0503 16.1471C13.7195 16.5823 12.069 16.7999 10.0988 16.7999H6.38024V19.302H19.8453V22.2211H6.38024V26.5H2.64212V22.2211H0V19.302H2.64212V16.8543H0ZM17.1053 8.45955C17.1053 6.65853 16.4268 5.34705 15.0699 4.5251C13.9087 3.82404 12.2386 3.4735 10.0596 3.4735H6.38024V13.8808H9.49208C10.9925 13.8808 12.2125 13.7538 13.1519 13.5C14.0913 13.2341 14.8742 12.8291 15.5005 12.2852C16.5704 11.294 17.1053 10.0188 17.1053 8.45955Z" fill="#05141F"/>
</svg>
