<svg width="11" height="25" viewBox="0 0 11 25" fill="none" xmlns="http://www.w3.org/2000/svg">
<path d="M0 13.8061V12.205H1.38397V5H5.35135C7.03262 5 8.32774 5.29614 9.23672 5.88842C10.4122 6.64993 11 7.7629 11 9.22734C11 10.4965 10.566 11.5346 9.69804 12.3417C9.18546 12.8298 8.58062 13.1911 7.8835 13.4254C7.18639 13.6597 6.32184 13.7768 5.28984 13.7768H3.34203V15.1241H10.3952V16.696H3.34203V19H1.38397V16.696H0V15.1241H1.38397V13.8061H0ZM8.95993 9.28591C8.95993 8.31613 8.60454 7.60995 7.89376 7.16736C7.28549 6.78987 6.41069 6.60112 5.26934 6.60112H3.34203V12.205H4.97204C5.758 12.205 6.39702 12.1367 6.8891 12C7.38117 11.8568 7.79124 11.6388 8.11929 11.3459C8.67971 10.8122 8.95993 10.1255 8.95993 9.28591Z" fill="#05141F"/>
</svg>
