<svg width="50" height="50" viewBox="0 0 50 50" fill="none" xmlns="http://www.w3.org/2000/svg">
<path d="M0.0446095 30.6343C0.13933 30.4367 0.283647 30.2672 0.463475 30.1421C0.643302 30.017 0.852493 29.9406 1.07063 29.9205C3.37247 29.5369 5.67432 29.1175 7.98509 28.7161C8.12488 28.6766 8.27181 28.6696 8.41471 28.6956C8.55761 28.7215 8.69271 28.7797 8.80972 28.8658C8.92673 28.9518 9.02256 29.0634 9.08993 29.1921C9.1573 29.3207 9.19442 29.4631 9.19847 29.6082C9.28769 30.0543 9.35906 30.5004 9.43936 31.009C9.56838 30.9385 9.69348 30.8611 9.81408 30.777C11.2965 29.622 13.0331 28.8373 14.8796 28.4882C16.7262 28.1391 18.6294 28.2355 20.4311 28.7696C22.2715 29.2596 24.2032 29.2963 26.0608 28.8767C27.7649 28.5376 29.4779 28.2254 31.1999 27.9845C32.1702 27.8015 33.1713 27.8694 34.1081 28.1817C35.0449 28.4939 35.8864 29.0403 36.553 29.7688C36.6244 29.8491 36.6868 29.9473 36.776 30.0633L37.2489 29.6618C39.408 28.0648 41.5314 26.4142 43.7262 24.8796C44.6502 24.2662 45.7646 24.0069 46.8645 24.1496C47.9643 24.2922 48.9758 24.827 49.7128 25.6558C49.8033 25.7394 49.8756 25.8408 49.925 25.9537C49.9745 26.0665 50 26.1884 50 26.3116C50 26.4348 49.9745 26.5567 49.925 26.6696C49.8756 26.7824 49.8033 26.8838 49.7128 26.9674C49.6236 27.0655 49.5254 27.1547 49.4362 27.2439C44.9753 31.58 40.5678 35.9071 36.1604 40.261C34.6334 41.6891 32.7455 42.6732 30.7002 43.1071C29.1369 43.4145 27.5343 43.4687 25.9538 43.2677C22.6616 43.0089 19.3694 42.777 16.0772 42.5361C15.1428 42.4532 14.2133 42.7417 13.4899 43.339C13.017 43.7138 12.5353 44.0706 12.0981 44.481C12.0271 44.5556 11.9723 44.644 11.937 44.7407C11.9016 44.8374 11.8866 44.9404 11.8929 45.0431C12.0713 46.1584 11.8929 46.4349 10.7509 46.6312C8.60962 46.997 6.46837 47.3807 4.3182 47.7643C3.3011 47.9427 2.96207 47.7108 2.77471 46.6847L0.0981408 31.4729C0.0763024 31.3801 0.043351 31.2902 0 31.2053L0.0446095 30.6343ZM47.857 26.4588C47.3298 26.0815 46.6908 25.893 46.0432 25.9238C45.3956 25.9545 44.7773 26.2028 44.2883 26.6283C42.3701 28.0558 40.4786 29.519 38.5336 30.9108C37.9091 31.3569 37.6415 31.7227 37.927 32.5257C38.2125 33.3287 37.8377 33.7212 37.0348 33.864L34.5902 34.2922C31.9136 34.7651 29.1567 35.2469 26.4266 35.7108C25.7664 35.8268 25.3382 35.5324 25.2579 34.9881C25.1776 34.4439 25.5077 34.096 26.1501 33.9443L33.3946 32.6774L35.9195 32.2224C35.5849 31.3674 34.968 30.6526 34.1712 30.1966C33.3743 29.7406 32.4455 29.5707 31.5389 29.7153C29.6385 30.0097 27.7471 30.322 25.8735 30.6967C23.9671 31.127 21.9838 31.078 20.101 30.554C19.1506 30.274 18.1654 30.1298 17.1746 30.1257C14.5138 30.0897 11.9471 31.1099 10.0371 32.9629C9.97369 33.0342 9.92521 33.1176 9.89456 33.208C9.86391 33.2984 9.85172 33.3941 9.85869 33.4893C10.1263 35.122 10.4118 36.7547 10.6973 38.3874L11.4468 42.6431C11.5092 42.6431 11.5538 42.6431 11.5717 42.6431C11.7412 42.5182 11.9107 42.3933 12.0713 42.2506C12.6415 41.7412 13.3104 41.3548 14.0365 41.1154C14.7625 40.8759 15.5301 40.7886 16.2914 40.8587C19.1196 41.0729 21.9389 41.3048 24.7582 41.4833C26.2907 41.6376 27.8326 41.6764 29.3709 41.5993C31.4527 41.4383 33.4098 40.5435 34.8935 39.0744C39.0571 34.9941 43.2206 30.9198 47.3842 26.8514C47.527 26.7036 47.6855 26.572 47.857 26.4588ZM10.055 44.9539L7.54792 30.6164L1.98066 31.5978L4.47879 45.8729C4.57073 45.8824 4.66342 45.8824 4.75537 45.8729L10.055 44.9539Z" fill="#05141F"/>
<path d="M46.9738 15.9218C46.9757 16.6833 46.919 17.444 46.8043 18.1968C46.6227 19.0883 46.1237 19.8835 45.4001 20.4348C44.6765 20.9862 43.7773 21.2561 42.8697 21.1946C42.602 21.1491 42.327 21.2079 42.1013 21.3589C41.8756 21.5099 41.7164 21.7417 41.6563 22.0065C41.2786 22.9041 40.6368 23.6656 39.8162 24.1899C38.9955 24.7141 38.0348 24.9764 37.0616 24.9418C36.0538 24.9412 35.0713 24.6263 34.2509 24.041C33.4305 23.4557 32.8131 22.6291 32.4846 21.6764C32.4604 21.5293 32.3797 21.3975 32.2597 21.3092C32.1397 21.2208 31.9899 21.1829 31.8422 21.2035C27.1434 21.2035 22.4445 21.2035 17.7457 21.2035C17.6764 21.1894 17.605 21.1893 17.5358 21.2033C17.4665 21.2173 17.4008 21.2451 17.3425 21.2851C17.2842 21.3251 17.2346 21.3764 17.1966 21.4359C17.1585 21.4955 17.1329 21.5621 17.1211 21.6318C16.7936 22.602 16.1677 23.4438 15.3328 24.0368C14.4978 24.6297 13.4968 24.9434 12.4728 24.9329C11.4383 24.9567 10.4232 24.6493 9.57571 24.0554C8.72825 23.4615 8.09278 22.6123 7.76206 21.6318C7.655 21.3195 7.53009 21.1946 7.19106 21.1946C6.28663 21.2584 5.38982 20.9914 4.66763 20.4432C3.94545 19.895 3.44711 19.103 3.26543 18.2147C2.95756 16.6902 2.97885 15.1176 3.32788 13.6021C3.52478 12.9251 3.9061 12.3162 4.4292 11.8436C4.95229 11.3709 5.59656 11.053 6.28995 10.9255C8.31522 10.3813 10.3316 9.83703 12.3479 9.26603C12.5915 9.19317 12.8065 9.04669 12.9635 8.8467C14.1323 7.35675 15.3189 5.79542 16.4698 4.23408C16.9664 3.51777 17.6354 2.93799 18.415 2.54819C19.1946 2.15839 20.0598 1.97111 20.9308 2.00361C25.3293 2.00361 29.7188 2.00361 34.1084 2.00361C34.8415 2.00234 35.5629 2.18655 36.2056 2.5391C36.8483 2.89165 37.3914 3.40108 37.7842 4.01996C38.8549 5.59021 39.8184 7.23184 40.8534 8.81994C41.0319 9.08421 41.2743 9.29904 41.5582 9.44447C42.5039 9.90841 43.4764 10.3367 44.431 10.7649C45.1956 11.0638 45.8476 11.5944 46.2955 12.2824C46.7435 12.9703 46.965 13.7812 46.9292 14.6013V15.9128L46.9738 15.9218ZM32.1634 19.4102C32.1634 19.2318 32.2348 19.098 32.2616 18.9552C32.4914 17.8398 33.0987 16.8376 33.9812 16.1177C34.8636 15.3977 35.9673 15.004 37.1062 15.0028C38.2423 14.9843 39.3495 15.3613 40.2381 16.0693C41.1268 16.7774 41.7417 17.7723 41.9775 18.8838C42.0667 19.3299 42.2452 19.4905 42.6734 19.4102C42.7716 19.4102 42.8697 19.4102 42.9678 19.4102C43.2619 19.4223 43.5553 19.3721 43.8286 19.2629C44.1019 19.1537 44.349 18.9879 44.5537 18.7764C44.7585 18.5649 44.9162 18.3126 45.0165 18.0359C45.1168 17.7592 45.1575 17.4644 45.1359 17.1708C45.1359 16.3411 45.1359 15.5114 45.1359 14.6816C45.1777 14.1837 45.0544 13.6859 44.7851 13.2651C44.5158 12.8442 44.1155 12.5237 43.6459 12.353C42.5931 11.8891 41.5582 11.3805 40.4965 10.9255C40.0741 10.7465 39.7227 10.4328 39.4972 10.0333C38.605 8.52551 37.5969 7.03556 36.6868 5.51884C36.3805 4.95139 35.9194 4.4825 35.3572 4.16665C34.7949 3.85079 34.1546 3.70093 33.5106 3.73446C29.3471 3.73446 25.1835 3.73446 21.02 3.73446C20.4048 3.71557 19.7949 3.85297 19.2472 4.13382C18.6996 4.41467 18.2321 4.8298 17.8884 5.3404C16.675 6.9731 15.426 8.57012 14.2037 10.1939C13.9357 10.5615 13.5474 10.8235 13.1063 10.9344C10.9561 11.5054 8.81485 12.0943 6.66467 12.7188C6.14749 12.818 5.68467 13.1035 5.36399 13.5212C5.04332 13.9389 4.88708 14.4597 4.9249 14.985C4.9249 15.7344 4.9249 16.4838 4.9249 17.2333C4.90454 17.5581 4.96006 17.8831 5.08706 18.1827C5.21407 18.4824 5.40907 18.7483 5.65664 18.9595C5.9042 19.1707 6.19753 19.3214 6.51341 19.3996C6.82929 19.4779 7.15904 19.4815 7.47656 19.4102C7.54794 19.1069 7.60147 18.7857 7.69961 18.518C8.03599 17.4729 8.71021 16.5692 9.61624 15.949C10.5223 15.3288 11.6087 15.0274 12.7048 15.092C13.788 15.1373 14.8255 15.5414 15.654 16.2407C16.4826 16.9401 17.0551 17.8949 17.2817 18.9552C17.362 19.3388 17.5137 19.4102 17.8527 19.4102H32.1634ZM12.4282 16.8407C11.7985 16.8408 11.183 17.028 10.66 17.3786C10.1369 17.7292 9.72985 18.2274 9.49053 18.8098C9.25122 19.3923 9.19044 20.0327 9.31591 20.6498C9.44139 21.2669 9.74745 21.8327 10.1952 22.2755C10.643 22.7182 11.2123 23.0179 11.8307 23.1364C12.4492 23.2549 13.0889 23.1868 13.6686 22.941C14.2483 22.6951 14.7419 22.2824 15.0866 21.7554C15.4312 21.2284 15.6115 20.6109 15.6044 19.9812C15.5927 19.1458 15.2532 18.3484 14.6591 17.7609C14.0649 17.1735 13.2637 16.843 12.4282 16.8407ZM37.1062 16.8407C36.4768 16.8425 35.8622 17.0312 35.3404 17.3829C34.8185 17.7346 34.4128 18.2334 34.1749 18.816C33.9369 19.3986 33.8774 20.0388 34.0039 20.6552C34.1304 21.2717 34.4371 21.8367 34.8853 22.2786C35.3334 22.7204 35.9027 23.0192 36.5209 23.137C37.1391 23.2547 37.7783 23.1862 38.3575 22.9401C38.9367 22.6939 39.4297 22.2813 39.774 21.7545C40.1183 21.2277 40.2983 20.6105 40.2913 19.9812C40.2889 19.5657 40.2046 19.1547 40.0432 18.7719C39.8818 18.389 39.6464 18.0417 39.3505 17.75C39.0546 17.4582 38.704 17.2277 38.3189 17.0717C37.9338 16.9157 37.5217 16.8372 37.1062 16.8407Z" fill="#05141F"/>
</svg>
