<svg width="20" height="21" viewBox="0 0 20 21" fill="none" xmlns="http://www.w3.org/2000/svg">
<path d="M18.3332 8H16.6665V6.33333H9.65484L7.98817 4.66667H3.33317V16.3333H9.539C9.84503 17.0022 10.3237 17.5774 10.9257 18H2.49984C2.27882 18 2.06686 17.9122 1.91058 17.7559C1.7543 17.5996 1.6665 17.3877 1.6665 17.1667V3.83333C1.6665 3.61232 1.7543 3.40036 1.91058 3.24408C2.06686 3.0878 2.27882 3 2.49984 3H8.67817L10.3448 4.66667H17.4998C17.7208 4.66667 17.9328 4.75446 18.0891 4.91074C18.2454 5.06702 18.3332 5.27899 18.3332 5.5V8ZM10.8332 9.66667H18.3332V14.6242C18.3332 15.4492 17.9157 16.2208 17.2198 16.6783L14.5832 18.415L11.9465 16.6783C11.6054 16.4551 11.325 16.1506 11.1307 15.7922C10.9364 15.4338 10.8341 15.0327 10.8332 14.625V9.66667ZM12.4998 14.6242C12.4998 14.8875 12.6348 15.1358 12.8632 15.2867L14.5832 16.42L16.3032 15.2867C16.4139 15.215 16.5051 15.117 16.5686 15.0013C16.632 14.8857 16.6657 14.7561 16.6665 14.6242V11.3333H12.4998V14.6242Z" fill="#05141F"/>
</svg>
