<svg width="50" height="12" viewBox="0 0 50 12" fill="none" xmlns="http://www.w3.org/2000/svg">
<path d="M29.1481 10.4315C29.1481 10.5243 29.1738 10.5749 29.2339 10.5749C29.2768 10.5749 29.3112 10.5581 29.3541 10.5328L44.8421 0.638638C45.1171 0.461501 45.3658 0.368714 45.7352 0.368714H49.1438C49.6675 0.368714 50.0193 0.714554 50.0193 1.22905V7.61426C50.0193 8.38186 49.8477 8.82892 49.1438 9.24224L45.0141 11.6799C44.9624 11.7136 44.9111 11.7305 44.8766 11.7305C44.8253 11.7305 44.7822 11.6968 44.7822 11.5534V4.09695C44.7822 4.0126 44.7563 3.95355 44.6964 3.95355C44.6533 3.95355 44.6193 3.97042 44.5762 3.99573L33.2519 11.2244C32.9342 11.4268 32.6767 11.4859 32.3848 11.4859H24.8725C24.3488 11.4859 23.9968 11.1401 23.9968 10.6256V1.4315C23.9968 1.36401 23.9624 1.30497 23.9109 1.30497C23.868 1.30497 23.8336 1.32184 23.7907 1.34714L16.3213 5.75862C16.2441 5.8008 16.2269 5.84298 16.2269 5.87672C16.2269 5.91046 16.2355 5.93576 16.2956 5.98637L21.6272 11.2244C21.6958 11.2919 21.7473 11.3509 21.7473 11.4015C21.7473 11.4606 21.6701 11.4943 21.5757 11.4943H16.7506C16.3729 11.4943 16.0809 11.4353 15.8749 11.2328L12.6382 8.05289C12.6038 8.01915 12.5781 8.00228 12.5437 8.00228C12.5179 8.00228 12.475 8.01915 12.4407 8.03602L7.03182 11.2328C6.70557 11.4268 6.48233 11.4859 6.15608 11.4859H1.17651C0.652807 11.4859 0.300781 11.1401 0.300781 10.6256V4.35844C0.300781 3.58241 0.472505 3.14378 1.17651 2.73046L5.3319 0.275928C5.37483 0.250623 5.40919 0.242188 5.4435 0.242188C5.50363 0.242188 5.53794 0.309668 5.53794 0.44463V8.82888C5.53794 8.91323 5.56371 8.9554 5.6238 8.9554C5.65815 8.9554 5.70108 8.9301 5.74401 8.90479L19.7813 0.613333C20.1161 0.419325 20.3222 0.360279 20.7085 0.360279H28.2638C28.7875 0.360279 29.1394 0.706119 29.1394 1.22062L29.1481 10.4315Z" fill="#05141F"/>
</svg>
