<svg width="70" height="17" viewBox="0 0 70 17" fill="none" xmlns="http://www.w3.org/2000/svg">
<path d="M40.8061 14.7046C40.8061 14.8345 40.8421 14.9053 40.9263 14.9053C40.9864 14.9053 41.0345 14.8817 41.0946 14.8463L62.7778 0.994484C63.1628 0.746491 63.511 0.616591 64.0281 0.616591H68.8002C69.5334 0.616591 70.0258 1.10077 70.0258 1.82106V10.7604C70.0258 11.835 69.7856 12.4609 68.8002 13.0395L63.0186 16.4523C62.9461 16.4995 62.8743 16.5231 62.8261 16.5231C62.7542 16.5231 62.6939 16.4759 62.6939 16.2751V5.83612C62.6939 5.71803 62.6577 5.63536 62.5738 5.63536C62.5135 5.63536 62.4658 5.65898 62.4055 5.69441L46.5515 15.8146C46.1067 16.098 45.7462 16.1806 45.3375 16.1806H34.8203C34.0871 16.1806 33.5943 15.6965 33.5943 14.9762V2.10448C33.5943 2.01001 33.5462 1.92735 33.4741 1.92735C33.414 1.92735 33.3659 1.95097 33.3058 1.98639L22.8487 8.16246C22.7405 8.22151 22.7165 8.28056 22.7165 8.32779C22.7165 8.37503 22.7285 8.41046 22.8126 8.48131L30.2768 15.8146C30.373 15.909 30.4451 15.9917 30.4451 16.0626C30.4451 16.1452 30.337 16.1925 30.2047 16.1925H23.4497C22.9208 16.1925 22.5121 16.1098 22.2237 15.8264L17.6922 11.3744C17.6441 11.3272 17.6081 11.3036 17.56 11.3036C17.5239 11.3036 17.4638 11.3272 17.4158 11.3508L9.84337 15.8264C9.38662 16.098 9.07409 16.1806 8.61734 16.1806H1.64595C0.912758 16.1806 0.419922 15.6965 0.419922 14.9762V6.2022C0.419922 5.11576 0.660336 4.50168 1.64595 3.92303L7.46349 0.48669C7.52359 0.451262 7.57169 0.439453 7.61972 0.439453C7.7039 0.439453 7.75194 0.533926 7.75194 0.722873V12.4608C7.75194 12.5789 7.78802 12.638 7.87215 12.638C7.92024 12.638 7.98034 12.6025 8.04045 12.5671L27.6926 0.959056C28.1614 0.687446 28.4499 0.604781 28.9907 0.604781H39.5681C40.3013 0.604781 40.794 1.08896 40.794 1.80926L40.8061 14.7046Z" fill="white"/>
</svg>
