<svg width="50" height="50" viewBox="0 0 50 50" fill="none" xmlns="http://www.w3.org/2000/svg">
<g clip-path="url(#clip0_227_2637)">
<path d="M0.744072 49.9658C-0.155928 49.3958 -0.255928 48.8158 0.534072 48.0558L9.53407 39.0558C9.64252 38.9513 9.72791 38.8252 9.78474 38.6857C9.84157 38.5462 9.86859 38.3964 9.86407 38.2458C9.8178 36.5185 10.3111 34.8198 11.2754 33.3859C12.2396 31.9521 13.6269 30.8545 15.2441 30.2458L15.6541 30.0558C15.4386 29.9382 15.2344 29.8009 15.0441 29.6458C13.9241 28.5458 12.7941 27.4258 11.6841 26.3058C11.2656 25.9156 10.9318 25.4435 10.7037 24.9188C10.4755 24.3941 10.3577 23.828 10.3577 23.2558C10.3577 22.6837 10.4755 22.1176 10.7037 21.5929C10.9318 21.0682 11.2656 20.596 11.6841 20.2058C13.6841 18.1525 15.7207 16.1158 17.7941 14.0958C17.905 13.9756 18.0291 13.8682 18.1641 13.7758C18.3484 13.6505 18.5713 13.5948 18.7929 13.6186C19.0146 13.6424 19.2206 13.7442 19.3741 13.9058C19.5243 14.0663 19.6174 14.2718 19.6391 14.4905C19.6608 14.7092 19.6098 14.929 19.4941 15.1158C19.3748 15.2717 19.2445 15.4187 19.1041 15.5558L13.1041 21.4858C12.8357 21.6973 12.6188 21.967 12.4696 22.2744C12.3205 22.5819 12.243 22.9191 12.243 23.2608C12.243 23.6025 12.3205 23.9398 12.4696 24.2473C12.6188 24.5547 12.8357 24.8243 13.1041 25.0358L17.3941 29.3158C17.4992 29.4418 17.6307 29.5432 17.7793 29.6127C17.9279 29.6823 18.09 29.7183 18.2541 29.7183C18.4182 29.7183 18.5802 29.6823 18.7288 29.6127C18.8774 29.5432 19.009 29.4418 19.1141 29.3158C20.3441 28.0958 21.5441 26.8558 22.7941 25.6658C23.2684 25.21 23.8512 24.8827 24.4872 24.7147C25.1233 24.5468 25.7916 24.5437 26.4292 24.7058C27.0668 24.868 27.6525 25.19 28.131 25.6414C28.6095 26.0928 28.9651 26.6588 29.1641 27.2858C29.4013 27.978 29.433 28.7239 29.2556 29.4337C29.0782 30.1435 28.6991 30.7868 28.1641 31.2858C26.8641 32.6192 25.5607 33.9192 24.2541 35.1858C24.085 35.3383 23.9081 35.4818 23.7241 35.6158C24.1541 36.0158 24.4741 36.3758 24.8341 36.6158C25.2203 36.9241 25.6999 37.0921 26.1941 37.0921C26.6883 37.0921 27.1678 36.9241 27.5541 36.6158C27.7201 36.4831 27.8771 36.3394 28.0241 36.1858L46.7441 17.6258C47.0276 17.4135 47.2578 17.138 47.4163 16.8212C47.5749 16.5044 47.6574 16.1551 47.6574 15.8008C47.6574 15.4466 47.5749 15.0972 47.4163 14.7804C47.2578 14.4637 47.0276 14.1882 46.7441 13.9758L35.5941 2.82583C35.3795 2.54396 35.1027 2.31548 34.7852 2.15819C34.4678 2.0009 34.1183 1.91907 33.7641 1.91907C33.4098 1.91907 33.0603 2.0009 32.7429 2.15819C32.4255 2.31548 32.1487 2.54396 31.9341 2.82583L25.9341 8.82583C25.8041 8.94583 25.6841 9.07583 25.5441 9.19583C25.3547 9.30728 25.134 9.35328 24.9159 9.32672C24.6978 9.30016 24.4945 9.20252 24.3375 9.04889C24.1805 8.89525 24.0784 8.69418 24.047 8.47673C24.0157 8.25929 24.0568 8.03757 24.1641 7.84583C24.257 7.72955 24.3608 7.6224 24.4741 7.52583L30.5541 1.44583C30.9502 0.99178 31.4389 0.627817 31.9874 0.378426C32.536 0.129035 33.1315 0 33.7341 0C34.3366 0 34.9322 0.129035 35.4807 0.378426C36.0292 0.627817 36.518 0.99178 36.9141 1.44583L48.1741 12.6158C48.6279 13.011 48.9917 13.4989 49.2411 14.0466C49.4904 14.5943 49.6194 15.1891 49.6194 15.7908C49.6194 16.3926 49.4904 16.9874 49.2411 17.5351C48.9917 18.0828 48.6279 18.5707 48.1741 18.9658C44.6007 22.5392 41.0274 26.1092 37.4541 29.6758C37.1934 29.9383 36.9892 30.2514 36.8541 30.5958C35.6074 33.9292 34.3707 37.2625 33.1441 40.5958C32.6812 41.981 31.877 43.2274 30.8057 44.2201C29.7344 45.2127 28.4305 45.9197 27.0141 46.2758C24.7941 46.9058 22.5741 47.5558 20.3441 48.1558C19.8715 48.2736 19.4439 48.5274 19.1141 48.8858C18.7441 49.2658 18.3341 49.6058 17.9341 49.9658H17.3441C16.4741 49.3958 16.4241 48.8258 17.1641 48.0758C17.4741 47.7658 17.7941 47.4658 18.0941 47.1458C18.4212 46.7841 18.8499 46.5297 19.3241 46.4158C21.7241 45.7658 24.1241 45.0758 26.5141 44.4158C27.6204 44.1376 28.6382 43.5835 29.4723 42.8053C30.3065 42.0271 30.9298 41.0502 31.2841 39.9658C31.8241 38.4858 32.3741 36.9658 32.9241 35.5358L33.6441 33.5358L33.4741 33.4058C33.3926 33.5589 33.2954 33.703 33.1841 33.8358C31.8941 35.1258 30.6141 36.4258 29.3141 37.7058C28.9198 38.1334 28.4413 38.4746 27.9086 38.708C27.3759 38.9414 26.8006 39.0619 26.2191 39.0619C25.6375 39.0619 25.0622 38.9414 24.5296 38.708C23.9969 38.4746 23.5183 38.1334 23.1241 37.7058C22.9141 37.4958 22.7341 37.2458 22.5241 37.0058C22.2241 37.2758 22.0341 37.4758 21.8141 37.6358C21.6267 37.7655 21.4006 37.8273 21.1732 37.8109C20.9459 37.7946 20.731 37.701 20.5641 37.5458C20.4074 37.3801 20.312 37.1658 20.2938 36.9385C20.2756 36.7111 20.3357 36.4844 20.4641 36.2958C20.5731 36.153 20.6935 36.0192 20.8241 35.8958L26.6341 30.1058L26.9041 29.8258C27.084 29.6466 27.2268 29.4336 27.3244 29.1992C27.4221 28.9647 27.4725 28.7133 27.473 28.4594C27.4735 28.2054 27.4239 27.9538 27.3272 27.719C27.2304 27.4842 27.0883 27.2707 26.9091 27.0908C26.7298 26.9109 26.5169 26.7681 26.2824 26.6705C26.048 26.5728 25.7966 26.5224 25.5426 26.5219C25.2886 26.5214 25.0371 26.571 24.8023 26.6678C24.5674 26.7645 24.354 26.9066 24.1741 27.0858C22.9841 28.2458 21.7741 29.3858 20.6541 30.6158C20.3625 30.9562 19.9956 31.2238 19.5824 31.3974C19.1692 31.571 18.7212 31.6458 18.2741 31.6158C17.3143 31.5916 16.3622 31.7925 15.4939 32.2023C14.6257 32.6121 13.8654 33.2195 13.2741 33.9758C12.2081 35.2538 11.681 36.8962 11.8041 38.5558C11.8251 38.853 11.7774 39.151 11.6646 39.4267C11.5519 39.7024 11.3772 39.9485 11.1541 40.1458C8.09407 43.1458 5.05407 46.2158 2.01407 49.2458C1.76428 49.4754 1.50044 49.6891 1.22407 49.8858L0.744072 49.9658Z" fill="#05141F"/>
<path d="M31.4445 25.6059C31.532 25.3851 31.6535 25.1793 31.8045 24.9959C35.1378 21.6626 38.4712 18.3293 41.8045 14.9959C41.896 14.8941 42.0074 14.8121 42.1318 14.755C42.2563 14.698 42.3911 14.6671 42.528 14.6643C42.6649 14.6615 42.8009 14.6868 42.9276 14.7387C43.0542 14.7906 43.1689 14.8679 43.2645 14.9659C43.3563 15.0645 43.4273 15.1806 43.4731 15.3072C43.5189 15.4339 43.5387 15.5685 43.5312 15.703C43.5237 15.8374 43.4892 15.969 43.4296 16.0898C43.37 16.2106 43.2867 16.3181 43.1845 16.4059C39.8512 19.7393 36.5178 23.0726 33.1845 26.4059C33.0523 26.5632 32.8721 26.6728 32.6716 26.7179C32.4712 26.7631 32.2614 26.7413 32.0745 26.6559C31.868 26.5755 31.694 26.4287 31.58 26.2386C31.466 26.0486 31.4183 25.826 31.4445 25.6059Z" fill="#05141F"/>
<path d="M33.9443 13.9662C33.4736 13.9915 33.0027 13.9207 32.5603 13.758C32.1179 13.5953 31.7133 13.3441 31.3712 13.0199C31.029 12.6956 30.7565 12.3051 30.5703 11.8721C30.3841 11.439 30.2881 10.9726 30.2881 10.5012C30.2881 10.0299 30.3841 9.56346 30.5703 9.13043C30.7565 8.6974 31.029 8.30686 31.3712 7.98261C31.7133 7.65837 32.1179 7.40724 32.5603 7.24453C33.0027 7.08182 33.4736 7.01095 33.9443 7.03625C34.415 7.01095 34.8859 7.08182 35.3283 7.24453C35.7707 7.40724 36.1753 7.65837 36.5174 7.98261C36.8596 8.30686 37.132 8.6974 37.3183 9.13043C37.5045 9.56346 37.6005 10.0299 37.6005 10.5012C37.6005 10.9726 37.5045 11.439 37.3183 11.8721C37.132 12.3051 36.8596 12.6956 36.5174 13.0199C36.1753 13.3441 35.7707 13.5953 35.3283 13.758C34.8859 13.9207 34.415 13.9915 33.9443 13.9662ZM33.9443 11.9662C34.3457 11.961 34.7287 11.7971 35.0097 11.5105C35.2908 11.2238 35.447 10.8377 35.4443 10.4363C35.4244 10.0477 35.2591 9.6808 34.9812 9.40848C34.7033 9.13615 34.3332 8.97829 33.9443 8.96625C33.5403 8.96889 33.1537 9.13125 32.8689 9.4179C32.5841 9.70454 32.4243 10.0922 32.4243 10.4962C32.4282 10.6932 32.4709 10.8875 32.5499 11.068C32.6289 11.2485 32.7427 11.4117 32.8848 11.5482C33.0268 11.6847 33.1944 11.7919 33.3779 11.8636C33.5615 11.9354 33.7573 11.9702 33.9543 11.9662H33.9443Z" fill="#05141F"/>
<path d="M22.6843 19.3754C22.5966 19.5764 22.4822 19.7648 22.3443 19.9354C21.3043 20.9954 20.2577 22.0454 19.2043 23.0854C19.1144 23.1855 19.0053 23.2664 18.8834 23.3233C18.7615 23.3803 18.6294 23.412 18.495 23.4167C18.3605 23.4213 18.2265 23.3988 18.101 23.3505C17.9754 23.3022 17.8609 23.229 17.7643 23.1354C17.6729 23.0383 17.6018 22.9239 17.5552 22.799C17.5086 22.674 17.4875 22.541 17.4931 22.4077C17.4987 22.2745 17.5308 22.1437 17.5877 22.0231C17.6446 21.9025 17.7251 21.7944 17.8243 21.7054C18.8243 20.7054 19.9243 19.6054 20.9743 18.5654C21.115 18.4075 21.302 18.2982 21.5086 18.2533C21.7153 18.2084 21.9308 18.2301 22.1243 18.3154C22.5043 18.4854 22.6843 18.7954 22.6843 19.3754Z" fill="#05141F"/>
<path d="M21.8145 12.4961C21.5492 12.4961 21.2949 12.3907 21.1073 12.2032C20.9198 12.0157 20.8145 11.7613 20.8145 11.4961C20.8145 11.2309 20.9198 10.9765 21.1073 10.789C21.2949 10.6015 21.5492 10.4961 21.8145 10.4961C22.0797 10.4961 22.334 10.6015 22.5216 10.789C22.7091 10.9765 22.8145 11.2309 22.8145 11.4961C22.8145 11.7613 22.7091 12.0157 22.5216 12.2032C22.334 12.3907 22.0797 12.4961 21.8145 12.4961Z" fill="#05141F"/>
</g>
<defs>
<clipPath id="clip0_227_2637">
<rect width="50" height="50" fill="white"/>
</clipPath>
</defs>
</svg>
