<svg width="50" height="50" viewBox="0 0 50 50" fill="none" xmlns="http://www.w3.org/2000/svg">
<path d="M10.4575 8.00058C8.02954 7.98598 5.69132 8.91742 3.93845 10.5975C2.18558 12.2776 1.15584 14.5742 1.0675 17.0006C0.9775 22.0906 0.9775 27.3706 1.0675 32.6506C1.14979 34.9892 2.10691 37.2116 3.74948 38.8783C5.39204 40.5449 7.60037 41.5343 9.9375 41.6506C12.2439 41.8022 14.5233 41.0829 16.3249 39.6349C18.1266 38.1869 19.3194 36.1156 19.6675 33.8306C19.8975 31.8306 19.8875 24.0806 19.8875 24.0806C19.8875 23.5106 19.8875 22.9506 19.8875 22.3906C19.8875 20.6306 19.8875 18.8206 19.8875 17.0506C19.8143 14.6076 18.7854 12.2908 17.022 10.5985C15.2586 8.9061 12.9015 7.97329 10.4575 8.00058ZM17.7075 27.0006C17.7075 28.6806 17.7075 30.3606 17.7075 32.0006C17.7075 33.9207 16.9447 35.7623 15.587 37.12C14.2292 38.4778 12.3877 39.2406 10.4675 39.2406C8.54733 39.2406 6.70581 38.4778 5.34805 37.12C3.99028 35.7623 3.2275 33.9207 3.2275 32.0006C3.2275 26.6806 3.2275 22.0006 3.2275 17.5806C3.19913 16.6147 3.36629 15.6531 3.71894 14.7534C4.07158 13.8538 4.60243 13.0347 5.27961 12.3454C5.95678 11.6561 6.76629 11.1108 7.65953 10.7422C8.55276 10.3736 9.51128 10.1894 10.4775 10.2006C11.4362 10.2016 12.385 10.3944 13.2681 10.7675C14.1512 11.1406 14.9508 11.6866 15.6198 12.3733C16.2888 13.06 16.8137 13.8736 17.1637 14.7661C17.5136 15.6587 17.6815 16.6122 17.6575 17.5706C17.6575 19.2406 17.6575 20.9006 17.6575 22.5706V27.0006H17.7075Z" fill="#05141F"/>
<path d="M47.2975 19.4404C47.204 19.3368 47.0899 19.2539 46.9624 19.197C46.835 19.1402 46.6971 19.1107 46.5575 19.1104C46.2866 19.1189 46.0262 19.2174 45.8175 19.3904C45.6779 19.4996 45.5475 19.62 45.4275 19.7504L45.3475 19.8304C39.4675 25.7104 33.5908 31.587 27.7175 37.4604C27.6575 37.5303 27.5775 37.5904 27.5075 37.6604C27.4068 37.746 27.3131 37.8396 27.2275 37.9404C27.1325 38.3685 27.1325 38.8122 27.2275 39.2404C27.4168 39.451 27.6441 39.624 27.8975 39.7504L28.0875 39.8704L28.3475 39.7104C28.7033 39.507 29.0382 39.2692 29.3475 39.0004C34.1942 34.1737 39.0342 29.3404 43.8675 24.5004L46.9775 21.3504C47.1244 21.2135 47.2614 21.0665 47.3875 20.9104C47.4835 20.8106 47.5578 20.6921 47.6056 20.5621C47.6535 20.4322 47.6738 20.2938 47.6653 20.1556C47.6569 20.0174 47.6198 19.8825 47.5565 19.7594C47.4932 19.6362 47.405 19.5276 47.2975 19.4404Z" fill="#05141F"/>
<path d="M33.2377 25.4602C33.6961 25.009 34.059 24.4701 34.3047 23.8757C34.5504 23.2812 34.6738 22.6434 34.6677 22.0002C34.673 20.7491 34.1825 19.5469 33.3035 18.6567C32.4245 17.7665 31.2287 17.2607 29.9777 17.2502H29.9177C29.2891 17.2449 28.6657 17.3636 28.0831 17.5996C27.5005 17.8356 26.9701 18.1842 26.5224 18.6254C26.0747 19.0666 25.7184 19.5918 25.4739 20.1709C25.2294 20.75 25.1016 21.3716 25.0977 22.0002C25.1077 23.2607 25.6082 24.4678 26.493 25.3657C27.3778 26.2635 28.5774 26.7816 29.8377 26.8102C30.4661 26.8256 31.0911 26.7139 31.6753 26.4819C32.2596 26.25 32.791 25.9024 33.2377 25.4602ZM27.2977 22.0002C27.3129 21.334 27.5844 20.6993 28.0556 20.2281C28.5268 19.7569 29.1615 19.4854 29.8277 19.4702C30.5185 19.4607 31.1871 19.7146 31.6977 20.1802C31.942 20.4165 32.1368 20.6992 32.2707 21.0117C32.4047 21.3242 32.475 21.6602 32.4777 22.0002C32.4816 22.3424 32.4179 22.6821 32.2903 22.9997C32.1627 23.3174 31.9736 23.6066 31.7339 23.851C31.4942 24.0953 31.2086 24.29 30.8935 24.4237C30.5784 24.5574 30.2399 24.6276 29.8977 24.6302C29.5525 24.6269 29.2113 24.5554 28.8938 24.4198C28.5763 24.2842 28.2888 24.0872 28.0477 23.8402C27.5685 23.3473 27.2996 22.6876 27.2977 22.0002Z" fill="#05141F"/>
<path d="M48.0972 33.4498C47.6456 33.0031 47.11 32.6503 46.5213 32.4117C45.9325 32.1731 45.3024 32.0535 44.6672 32.0598C43.408 32.0703 42.2034 32.5751 41.313 33.4655C40.4225 34.3559 39.9177 35.5606 39.9072 36.8198C39.9118 37.4597 40.0431 38.0923 40.2938 38.681C40.5444 39.2698 40.9092 39.803 41.3672 40.2498C42.275 41.1341 43.49 41.6323 44.7572 41.6398C46.019 41.6214 47.2231 41.108 48.1097 40.21C48.9964 39.3121 49.4947 38.1017 49.4972 36.8398C49.4997 36.2102 49.3772 35.5864 49.1368 35.0045C48.8965 34.4226 48.5432 33.8942 48.0972 33.4498ZM46.5472 38.6598C46.3117 38.9025 46.0306 39.0964 45.72 39.2302C45.4094 39.3641 45.0754 39.4353 44.7372 39.4398C44.0503 39.4531 43.3863 39.1929 42.8912 38.7166C42.3961 38.2402 42.1105 37.5867 42.0972 36.8998C42.084 36.2129 42.3441 35.5489 42.8205 35.0538C43.2968 34.5587 43.9503 34.2731 44.6372 34.2598C45.3232 34.259 45.9828 34.5243 46.4772 34.9998C46.7229 35.2357 46.9193 35.5181 47.0549 35.8305C47.1906 36.1429 47.2627 36.4792 47.2672 36.8198C47.2755 37.5034 47.0173 38.1634 46.5472 38.6598Z" fill="#05141F"/>
</svg>
