<svg width="20" height="20" viewBox="0 0 20 20" fill="none" xmlns="http://www.w3.org/2000/svg">
<path d="M2.49407 3.50585L3.79307 2.20685C3.98059 2.01938 4.2349 1.91406 4.50007 1.91406C4.76523 1.91406 5.01954 2.01938 5.20707 2.20685L7.86707 4.86685C8.04144 5.0409 8.14543 5.2732 8.15909 5.51919C8.17274 5.76519 8.09511 6.00757 7.94107 6.19985L7.26007 7.05085C6.79307 7.63485 6.67707 8.43885 7.05707 9.08285C8.37507 11.3128 10.2481 12.5828 11.5681 13.1688C12.1381 13.4228 12.7861 13.2718 13.2741 12.8818L14.3011 12.0598C14.4933 11.9061 14.7354 11.8286 14.9812 11.8423C15.227 11.8559 15.4591 11.9597 15.6331 12.1338L18.2361 14.7368C18.3336 14.8343 18.41 14.9508 18.4603 15.0791C18.5107 15.2075 18.534 15.3448 18.5287 15.4826C18.5235 15.6204 18.4898 15.7555 18.4298 15.8797C18.3698 16.0038 18.2848 16.1142 18.1801 16.2038L16.4891 17.6538C15.8591 18.1938 15.0291 18.4738 14.2031 18.3878C12.4021 18.1978 9.60107 17.6018 6.50007 14.5008C2.78407 10.7848 1.92307 7.86685 1.64507 5.89785C1.52007 5.01585 1.86407 4.13685 2.49407 3.50785V3.50585Z" stroke="white" stroke-width="1.5"/>
</svg>
