<svg width="50" height="50" viewBox="0 0 50 50" fill="none" xmlns="http://www.w3.org/2000/svg">
<path d="M9 10H36V45H9V10Z" stroke="#05141F" stroke-width="2"/>
<path d="M15 10V5H41V42H35" stroke="#05141F" stroke-width="2"/>
<path d="M17.756 39V28.425M14 34.097H26.341M17.756 28.425V17H23.312C24.0621 17 24.8049 17.1477 25.4979 17.4348C26.1909 17.7219 26.8206 18.1426 27.351 18.673C27.8814 19.2034 28.3021 19.8331 28.5892 20.5261C28.8763 21.2191 29.024 21.9619 29.024 22.712V22.712C29.0241 23.4622 28.8765 24.2051 28.5895 24.8982C28.3025 25.5913 27.8818 26.2211 27.3513 26.7516C26.8209 27.2822 26.1912 27.703 25.4981 27.9901C24.805 28.2772 24.0622 28.425 23.312 28.425H17.756Z" stroke="#05141F" stroke-width="2"/>
</svg>
