<svg width="51" height="50" viewBox="0 0 51 50" fill="none" xmlns="http://www.w3.org/2000/svg">
<path d="M24.9245 50C23.4457 49.4105 21.927 48.881 20.5083 48.2115C15.9961 46.2174 11.8726 43.4403 8.32872 40.0086C6.23269 38.1127 4.66892 35.7016 3.79261 33.0146C3.50812 32.04 3.35358 31.0322 3.33301 30.0172C3.33301 22.5236 3.33301 15.03 3.33301 7.55645C3.33301 6.6872 3.54283 6.40744 4.38211 6.14766C11.1363 4.14938 17.8905 2.12778 24.6447 0.0828738C25.0163 -0.0276246 25.4121 -0.0276246 25.7837 0.0828738C32.5313 2.08116 39.2688 4.09942 45.9964 6.13767C46.9156 6.40744 47.0954 6.66722 47.0954 7.64638C47.0954 14.9701 47.0954 22.2938 47.0954 29.6275C47.089 32.3183 46.2011 34.9329 44.5676 37.0711C42.0677 40.3551 38.9524 43.1208 35.3955 45.2141C32.3641 47.1479 29.1099 48.708 25.7038 49.8601C25.6308 49.8907 25.5607 49.9275 25.494 49.97L24.9245 50ZM5.41122 19.6161V29.8773C5.39934 31.0203 5.61325 32.1543 6.04068 33.2144C7.17727 35.7473 8.8876 37.981 11.0364 39.7388C15.0626 43.2676 19.7349 45.9821 24.7946 47.7319C25.0645 47.817 25.354 47.817 25.6239 47.7319C28.9682 46.5707 32.1484 44.9822 35.0857 43.006C38.1258 41.1263 40.7862 38.6929 42.929 35.8322C44.2922 34.0086 45.0315 31.7943 45.0372 29.5176C45.0372 22.5236 45.0372 15.5296 45.0372 8.53561C45.0513 8.45529 45.049 8.37293 45.0302 8.29356C45.0114 8.21419 44.9767 8.13948 44.928 8.07401C44.8794 8.00854 44.8179 7.95369 44.7474 7.9128C44.6768 7.87191 44.5986 7.84585 44.5176 7.83621L25.6938 2.27099C25.3671 2.17927 25.0214 2.17927 24.6947 2.27099C18.45 4.13939 12.1954 6.03776 5.93078 7.89616C5.8499 7.90466 5.7716 7.92952 5.70064 7.96924C5.62968 8.00896 5.56754 8.0627 5.518 8.12719C5.46847 8.19168 5.43257 8.26557 5.4125 8.34437C5.39242 8.42318 5.38859 8.50524 5.40123 8.58557C5.42121 12.2624 5.41122 15.9393 5.41122 19.6161Z" fill="#05141F"/>
<path d="M23.156 30.9465C23.3558 30.6867 23.4457 30.5069 23.5856 30.367L36.6643 17.2782C36.8123 17.1283 36.9728 16.9913 37.1439 16.8686C37.3366 16.7271 37.5736 16.6594 37.8119 16.6777C38.0502 16.6961 38.2741 16.7992 38.4428 16.9685C38.614 17.1329 38.7211 17.3529 38.7449 17.589C38.7687 17.8252 38.7077 18.0621 38.5727 18.2574C38.4596 18.4182 38.3326 18.5686 38.193 18.707L24.1351 32.7549C23.3658 33.5343 22.8962 33.5243 22.1368 32.7549C19.5257 30.1638 16.9213 27.586 14.3235 25.0216C13.6741 24.3721 13.5742 23.7627 14.0438 23.2831C14.5134 22.8035 15.1428 22.8934 15.8123 23.5628L22.6864 30.4369C22.8262 30.5169 22.9261 30.6667 23.156 30.9465Z" fill="#05141F"/>
</svg>
