<svg width="50" height="50" viewBox="0 0 50 50" fill="none" xmlns="http://www.w3.org/2000/svg">
<g clip-path="url(#clip0_227_2556)">
<path d="M50.0037 25.7705C49.8759 26.0622 49.6562 26.3041 49.3782 26.4594C49.1002 26.6146 48.779 26.6747 48.4637 26.6305C47.4637 26.6305 46.4637 26.6305 45.4637 26.6305C44.7437 34.9405 40.9037 41.3005 33.6437 45.3805C31.0109 46.8719 28.0988 47.8042 25.0895 48.1191C22.0801 48.4339 19.0381 48.1246 16.1537 47.2105C13.184 46.3151 10.4293 44.8208 8.05938 42.8198C5.68943 40.8189 3.75449 38.3537 2.37386 35.5762C0.993239 32.7987 0.196199 29.7679 0.031889 26.6706C-0.13242 23.5732 0.339484 20.4751 1.41851 17.5671C2.49753 14.6592 4.16079 12.0031 6.30573 9.7626C8.45068 7.52214 11.0318 5.7448 13.89 4.54019C16.7483 3.33558 19.8229 2.72923 22.9245 2.75852C26.026 2.78781 29.0887 3.45213 31.9237 4.71052C32.0537 4.47052 32.1937 4.22052 32.3237 3.96052L33.4237 1.79052C33.4816 1.61806 33.5793 1.46165 33.7089 1.33393C33.8384 1.2062 33.9962 1.11074 34.1695 1.05526C34.3427 0.999777 34.5266 0.985825 34.7063 1.01453C34.8859 1.04324 35.0563 1.1138 35.2037 1.22052C38.7478 3.02528 41.8495 5.59075 44.287 8.73352C46.7244 11.8763 48.4375 15.5188 49.3037 19.4005C49.6237 20.7205 49.7137 22.0905 49.9237 23.4005C49.9237 23.5605 49.9237 23.7105 50.0037 23.8705V25.7705ZM30.8837 6.83052C27.8421 5.49081 24.5192 4.91453 21.2042 5.15181C17.8891 5.38908 14.6822 6.43271 11.8624 8.19193C9.04265 9.95115 6.6954 12.3727 5.02485 15.2459C3.35429 18.1191 2.41103 21.3569 2.27711 24.6778C2.14319 27.9986 2.82267 31.3019 4.25644 34.3003C5.69021 37.2986 7.83486 39.9013 10.5038 41.8819C13.1728 43.8624 16.2852 45.1609 19.5704 45.6644C22.8556 46.1678 26.2141 45.861 29.3537 44.7705C33.1836 43.4735 36.5341 41.0532 38.9688 37.8247C41.4035 34.5963 42.8095 30.7094 43.0037 26.6705H34.7437C34.5832 28.4072 34.0432 30.0874 33.1619 31.5925C32.2807 33.0975 31.0796 34.3907 29.6437 35.3805C28.2362 36.4043 26.6175 37.1001 24.9061 37.4167C23.1948 37.7334 21.4342 37.6629 19.7537 37.2105C18.1432 36.81 16.6323 36.0827 15.3146 35.0738C13.997 34.0649 12.9007 32.796 12.094 31.3458C11.2872 29.8956 10.7871 28.295 10.6247 26.6434C10.4623 24.9919 10.6412 23.3246 11.15 21.745C11.6589 20.1654 12.4871 18.7073 13.583 17.4612C14.679 16.215 16.0193 15.2074 17.521 14.5009C19.0226 13.7943 20.6534 13.404 22.3121 13.354C23.9709 13.3041 25.6223 13.5956 27.1637 14.2105L30.8837 6.83052ZM47.6637 24.3305C47.4679 20.1064 46.2038 16.0009 43.9897 12.3982C41.7756 8.79548 38.6839 5.81326 35.0037 3.73052L29.1737 15.2505C30.7348 16.2399 32.0504 17.5716 33.0206 19.1448C33.9909 20.718 34.5903 22.4913 34.7737 24.3305H47.6637ZM32.5337 25.4105C32.5139 23.4757 31.923 21.5898 30.8351 19.9896C29.7472 18.3895 28.2108 17.1464 26.4189 16.4164C24.6269 15.6864 22.6592 15.5021 20.7629 15.8866C18.8665 16.2711 17.126 17.2072 15.7599 18.5775C14.3937 19.9478 13.4629 21.6911 13.0841 23.5886C12.7054 25.4861 12.8957 27.4533 13.6311 29.243C14.3665 31.0327 15.6142 32.5653 17.2177 33.6484C18.8211 34.7314 20.7088 35.3166 22.6437 35.3305C23.9483 35.3426 25.2423 35.094 26.4496 34.5994C27.6569 34.1048 28.7533 33.3741 29.6745 32.4501C30.5957 31.5261 31.3231 30.4275 31.8141 29.2187C32.305 28.0098 32.5497 26.7151 32.5337 25.4105Z" fill="#05141F"/>
<path d="M27.0741 25.5604C27.0635 26.7247 26.5908 27.8371 25.76 28.6529C24.9293 29.4687 23.8084 29.921 22.6441 29.9104C21.4798 29.8998 20.3674 29.4271 19.5516 28.5963C18.7359 27.7655 18.2835 26.6447 18.2941 25.4804C18.3073 24.3134 18.7816 23.1989 19.6134 22.3802C20.4452 21.5615 21.567 21.105 22.7341 21.1104C23.3123 21.1143 23.8839 21.2328 24.4159 21.4592C24.9479 21.6856 25.4297 22.0153 25.8333 22.4292C26.237 22.8431 26.5545 23.3329 26.7675 23.8704C26.9805 24.4079 27.0847 24.9823 27.0741 25.5604ZM22.7541 23.4204C22.4778 23.4097 22.2021 23.4547 21.9435 23.5527C21.685 23.6508 21.4488 23.8 21.2491 23.9913C21.0494 24.1826 20.8902 24.4121 20.7812 24.6662C20.6721 24.9204 20.6153 25.1939 20.6141 25.4704C20.5943 25.7577 20.6337 26.046 20.73 26.3174C20.8263 26.5888 20.9774 26.8375 21.1739 27.048C21.3703 27.2586 21.608 27.4264 21.8721 27.5412C22.1363 27.656 22.4212 27.7152 22.7091 27.7152C22.9971 27.7152 23.282 27.656 23.5461 27.5412C23.8102 27.4264 24.0479 27.2586 24.2444 27.048C24.4409 26.8375 24.592 26.5888 24.6883 26.3174C24.7845 26.046 24.824 25.7577 24.8041 25.4704C24.8015 24.9275 24.5847 24.4076 24.2008 24.0237C23.8169 23.6399 23.297 23.423 22.7541 23.4204Z" fill="#05141F"/>
<path d="M22.7636 17.1309C22.9146 17.1322 23.0639 17.1633 23.2029 17.2223C23.3419 17.2813 23.468 17.3671 23.5738 17.4748C23.6797 17.5825 23.7633 17.71 23.8199 17.85C23.8764 17.9901 23.9049 18.1399 23.9036 18.2909C23.9036 18.5959 23.7824 18.8884 23.5667 19.1041C23.3511 19.3197 23.0586 19.4409 22.7536 19.4409C22.4486 19.4409 22.1561 19.3197 21.9404 19.1041C21.7247 18.8884 21.6036 18.5959 21.6036 18.2909C21.6022 18.1382 21.6313 17.9868 21.6891 17.8454C21.747 17.7041 21.8324 17.5757 21.9403 17.4677C22.0483 17.3597 22.1767 17.2743 22.3181 17.2165C22.4594 17.1587 22.6109 17.1296 22.7636 17.1309Z" fill="#05141F"/>
<path d="M29.894 26.5703C29.7439 26.5716 29.595 26.543 29.4561 26.4862C29.3172 26.4294 29.191 26.3455 29.0849 26.2393C28.9788 26.1332 28.8948 26.007 28.838 25.8681C28.7812 25.7292 28.7526 25.5804 28.754 25.4303C28.754 25.1253 28.8751 24.8328 29.0908 24.6171C29.3064 24.4014 29.599 24.2803 29.904 24.2803C30.2089 24.2803 30.5015 24.4014 30.7171 24.6171C30.9328 24.8328 31.054 25.1253 31.054 25.4303C31.0553 25.5821 31.0261 25.7326 30.9681 25.8728C30.91 26.0131 30.8243 26.1402 30.7161 26.2466C30.6078 26.353 30.4792 26.4365 30.3379 26.4921C30.1967 26.5477 30.0457 26.5743 29.894 26.5703Z" fill="#05141F"/>
<path d="M22.7635 33.7007C22.6135 33.7047 22.4641 33.6787 22.3242 33.6243C22.1843 33.57 22.0566 33.4883 21.9486 33.384C21.8406 33.2797 21.7545 33.155 21.6952 33.017C21.636 32.8791 21.6048 32.7308 21.6035 32.5807C21.6035 32.2757 21.7247 31.9832 21.9403 31.7675C22.156 31.5518 22.4485 31.4307 22.7535 31.4307C23.0585 31.4307 23.351 31.5518 23.5667 31.7675C23.7824 31.9832 23.9035 32.2757 23.9035 32.5807C23.8983 32.8795 23.7759 33.1644 23.5626 33.3739C23.3494 33.5834 23.0624 33.7007 22.7635 33.7007Z" fill="#05141F"/>
<path d="M16.7333 25.4407C16.7067 25.7233 16.5757 25.9859 16.3658 26.177C16.1558 26.3681 15.8822 26.474 15.5983 26.474C15.3144 26.474 15.0407 26.3681 14.8308 26.177C14.6209 25.9859 14.4898 25.7233 14.4633 25.4407C14.4593 25.2902 14.4852 25.1403 14.5394 24.9998C14.5937 24.8593 14.6752 24.731 14.7794 24.6222C14.8835 24.5134 15.0082 24.4264 15.1462 24.366C15.2841 24.3057 15.4327 24.2733 15.5833 24.2707C15.7368 24.2679 15.8892 24.2964 16.0314 24.3544C16.1735 24.4125 16.3023 24.4989 16.4099 24.6084C16.5175 24.7179 16.6017 24.8482 16.6573 24.9912C16.7129 25.1343 16.7387 25.2873 16.7333 25.4407Z" fill="#05141F"/>
<path d="M27.8336 21.5101C27.6822 21.5115 27.5321 21.4826 27.392 21.4253C27.2519 21.368 27.1245 21.2833 27.0175 21.1763C26.9104 21.0692 26.8258 20.9419 26.7685 20.8018C26.7111 20.6617 26.6823 20.5115 26.6836 20.3601C26.6987 20.0655 26.8245 19.7874 27.0359 19.5815C27.2473 19.3757 27.5287 19.2573 27.8236 19.2501C27.9779 19.2433 28.1319 19.2681 28.2762 19.3231C28.4205 19.3781 28.5519 19.462 28.6625 19.5698C28.7731 19.6775 28.8604 19.8068 28.9191 19.9496C28.9777 20.0924 29.0065 20.2458 29.0036 20.4001C29.0039 20.5511 28.9733 20.7005 28.9138 20.8392C28.8543 20.978 28.7671 21.1031 28.6576 21.207C28.5481 21.3109 28.4185 21.3914 28.2769 21.4435C28.1352 21.4956 27.9844 21.5183 27.8336 21.5101Z" fill="#05141F"/>
<path d="M17.7335 21.521C17.4509 21.4944 17.1883 21.3634 16.9972 21.1534C16.8061 20.9435 16.7002 20.6699 16.7002 20.386C16.7002 20.1021 16.8061 19.8284 16.9972 19.6185C17.1883 19.4086 17.4509 19.2775 17.7335 19.251C18.0162 19.2775 18.2787 19.4086 18.4699 19.6185C18.661 19.8284 18.7669 20.1021 18.7669 20.386C18.7669 20.6699 18.661 20.9435 18.4699 21.1534C18.2787 21.3634 18.0162 21.4944 17.7335 21.521Z" fill="#05141F"/>
<path d="M16.5939 30.4801C16.5939 30.3339 16.623 30.1892 16.6795 30.0544C16.7361 29.9197 16.8189 29.7975 16.9232 29.6951C17.0274 29.5927 17.1511 29.5121 17.2868 29.458C17.4226 29.4039 17.5678 29.3774 17.7139 29.3801C18.0093 29.3774 18.2937 29.4915 18.5053 29.6975C18.717 29.9035 18.8387 30.1848 18.8439 30.4801C18.8439 30.6306 18.8141 30.7797 18.7562 30.9186C18.6983 31.0576 18.6134 31.1837 18.5065 31.2897C18.3996 31.3957 18.2727 31.4795 18.1333 31.5362C17.9938 31.5929 17.8445 31.6214 17.6939 31.6201C17.5468 31.6175 17.4017 31.5859 17.2668 31.5272C17.1319 31.4685 17.0099 31.3838 16.9078 31.2779C16.8056 31.1721 16.7253 31.0471 16.6715 30.9102C16.6176 30.7733 16.5913 30.6271 16.5939 30.4801Z" fill="#05141F"/>
<path d="M28.9441 30.4703C28.9508 30.6172 28.928 30.764 28.877 30.902C28.8259 31.0399 28.7478 31.1663 28.6471 31.2735C28.5464 31.3807 28.4252 31.4666 28.2907 31.5262C28.1562 31.5858 28.0112 31.6178 27.8641 31.6203C27.7136 31.6229 27.564 31.5957 27.424 31.5403C27.284 31.4848 27.1564 31.4021 27.0486 31.2971C26.9407 31.192 26.8548 31.0666 26.7956 30.9281C26.7365 30.7897 26.7054 30.6409 26.7041 30.4903C26.7041 30.1959 26.821 29.9136 27.0292 29.7054C27.2374 29.4972 27.5197 29.3803 27.8141 29.3803C27.9602 29.3763 28.1057 29.4015 28.242 29.4543C28.3782 29.5072 28.5026 29.5867 28.6078 29.6882C28.713 29.7897 28.797 29.9111 28.8547 30.0454C28.9124 30.1797 28.9428 30.3241 28.9441 30.4703Z" fill="#05141F"/>
</g>
<defs>
<clipPath id="clip0_227_2556">
<rect width="50" height="50" fill="white"/>
</clipPath>
</defs>
</svg>
