<svg width="16" height="16" viewBox="0 0 16 16" fill="none" xmlns="http://www.w3.org/2000/svg">
<path d="M8 0V1C9.14367 1.01663 10.2658 1.31325 11.2683 1.86392C12.2708 2.41459 13.1231 3.20253 13.7507 4.1588C14.3782 5.11508 14.7618 6.21056 14.868 7.3494C14.9742 8.48825 14.7997 9.63577 14.3598 10.6916C13.9198 11.7474 13.2279 12.6793 12.3445 13.4058C11.4611 14.1323 10.4131 14.6313 9.29221 14.8591C8.17134 15.0868 7.01172 15.0365 5.91481 14.7124C4.8179 14.3883 3.81711 13.8004 3 13C2.35635 12.3478 1.84824 11.5746 1.50497 10.725C1.1617 9.87542 0.990076 8.96626 1 8.05C1 6.19348 1.7375 4.41301 3.05025 3.10025C4.36301 1.7875 6.14348 1.05 8 1.05V0ZM8 0C5.87827 0 3.84344 0.842855 2.34315 2.34315C0.842855 3.84344 0 5.87827 0 8C0 10.1217 0.842855 12.1566 2.34315 13.6569C3.84344 15.1571 5.87827 16 8 16C10.1217 16 12.1566 15.1571 13.6569 13.6569C15.1571 12.1566 16 10.1217 16 8C16 5.87827 15.1571 3.84344 13.6569 2.34315C12.1566 0.842855 10.1217 0 8 0Z" fill="#05141F"/>
<path d="M3.2002 7.87047C3.2345 6.70942 3.68778 5.60001 4.47632 4.74713C5.26486 3.89426 6.3354 3.35554 7.4902 3.23047H8.0502" stroke="#05141F" stroke-linecap="round" stroke-linejoin="round"/>
<path d="M8.00992 9.56965C8.88806 9.56965 9.59992 8.85778 9.59992 7.97965C9.59992 7.10152 8.88806 6.38965 8.00992 6.38965C7.13179 6.38965 6.41992 7.10152 6.41992 7.97965C6.41992 8.85778 7.13179 9.56965 8.00992 9.56965Z" fill="#05141F"/>
<path d="M11.4102 4.62012L8.4502 7.59012" stroke="#05141F" stroke-linecap="round" stroke-linejoin="round"/>
</svg>
