<svg width="50" height="50" viewBox="0 0 50 50" fill="none" xmlns="http://www.w3.org/2000/svg">
<path fill-rule="evenodd" clip-rule="evenodd" d="M16.7367 9.67622L10.4997 16.4802L7.2627 12.9482L8.7367 11.5972L10.4997 13.5202L15.2627 8.32422L16.7367 9.67622Z" fill="#05141F"/>
<path fill-rule="evenodd" clip-rule="evenodd" d="M18 6H5V19H18V6ZM3 4V21H20V4H3Z" fill="#05141F"/>
<path d="M10 41H4.5C4.5 41 4 39.453 4 36.358C4 33.263 7.5 29.137 7.5 29.137C7.5 29.137 19 27.59 24 28.105C29 28.621 34 32.232 34 32.232C34 32.232 44 34.152 45 35.326C46 36.5 45.5 41 45.5 41H38.812M14 41H33.719" stroke="#05141F" stroke-width="2"/>
<path d="M12 44C13.6569 44 15 42.6569 15 41C15 39.3431 13.6569 38 12 38C10.3431 38 9 39.3431 9 41C9 42.6569 10.3431 44 12 44Z" stroke="#05141F" stroke-width="2"/>
<path d="M36 44C37.6569 44 39 42.6569 39 41C39 39.3431 37.6569 38 36 38C34.3431 38 33 39.3431 33 41C33 42.6569 34.3431 44 36 44Z" stroke="#05141F" stroke-width="2"/>
</svg>
