<svg width="50" height="50" viewBox="0 0 50 50" fill="none" xmlns="http://www.w3.org/2000/svg">
<path fill-rule="evenodd" clip-rule="evenodd" d="M32 4H4V43H11V41H6V6H30V10H32V4Z" fill="#05141F"/>
<path fill-rule="evenodd" clip-rule="evenodd" d="M33 19H16V17H33V19ZM33 24H16V22H33V24ZM27 29H16V27H27V29ZM27 34H16V32H27V34Z" fill="#05141F"/>
<path fill-rule="evenodd" clip-rule="evenodd" d="M12 12H37V25.678L39 23.678V10H10V47H39V32.163L37 34.163V45H12V12Z" fill="#05141F"/>
<path fill-rule="evenodd" clip-rule="evenodd" d="M44.183 21.3241L45.597 22.7381L33.893 34.4421L32.479 33.0271L44.183 21.3241ZM44.183 18.4951L48.425 22.7381L33.894 37.2701L29.652 33.0271L44.184 18.4951H44.183ZM33 38.0001L29 34.0001V38.0001H33ZM27 39.0001H16V37.0001H27V39.0001Z" fill="#05141F"/>
</svg>
