<svg width="20" height="21" viewBox="0 0 20 21" fill="none" xmlns="http://www.w3.org/2000/svg">
<g clip-path="url(#clip0_274_8692)">
<path d="M17.5 2.99366V18.007C17.4983 18.2258 17.4105 18.4352 17.2557 18.5899C17.1008 18.7446 16.8914 18.8321 16.6725 18.8337H3.3275C3.10818 18.8337 2.89783 18.7466 2.74266 18.5916C2.5875 18.4366 2.50022 18.2263 2.5 18.007V2.99366C2.50175 2.77481 2.58951 2.56543 2.74435 2.41075C2.89918 2.25608 3.10865 2.16852 3.3275 2.16699H16.6725C17.1292 2.16699 17.5 2.53699 17.5 2.99366ZM15.8333 3.83366H4.16667V17.167H15.8333V3.83366ZM9.41083 11.4345L12.9467 7.89949L14.125 9.07783L9.41083 13.792L6.16917 10.5503L7.34833 9.37199L9.41083 11.4345Z" fill="#05141F"/>
</g>
<defs>
<clipPath id="clip0_274_8692">
<rect width="20" height="20" fill="white" transform="translate(0 0.5)"/>
</clipPath>
</defs>
</svg>
