<svg width="50" height="50" viewBox="0 0 50 50" fill="none" xmlns="http://www.w3.org/2000/svg">
<path d="M25.22 2.00025C29.272 1.98276 33.2482 3.09804 36.7 5.22024C39.5649 6.89239 42.0289 9.17161 43.9189 11.8977C45.8089 14.6239 47.079 17.7308 47.64 21.0002C47.75 21.5702 47.82 22.1702 47.9 22.8002C47.9 23.0702 47.97 23.3302 48 23.5902V26.3002V26.5202L47.92 27.2402C47.4088 32.2243 45.2842 36.9051 41.8692 40.5711C38.4541 44.237 33.9354 46.6876 29 47.5502C28.41 47.6502 27.8 47.7302 27.16 47.8102L26.37 47.9102H23.78C23.6228 47.8689 23.4621 47.8421 23.3 47.8302C19.7624 47.6045 16.3317 46.5273 13.3 44.6902C10.4218 43.0268 7.94791 40.7463 6.0563 38.0126C4.16468 35.2789 2.90233 32.16 2.36 28.8802C2.25 28.3002 2.18 27.7002 2.1 27.0702C2.1 26.8102 2.03 26.5402 2 26.2802V23.6002V23.3802L2.08 22.6602C2.5545 17.8906 4.53715 13.3963 7.74 9.83025C9.77189 7.47116 12.2697 5.55778 15.0765 4.21031C17.8833 2.86283 20.9385 2.11039 24.05 2.00025C24.4433 2.00025 24.8333 2.00025 25.22 2.00025ZM25.22 0.000245054H24C20.6127 0.111049 17.2852 0.923718 14.2282 2.38683C11.1711 3.84995 8.45102 5.93166 6.24 8.50025C2.77201 12.3795 0.62857 17.2617 0.12 22.4402L0 23.4402V26.3602C0.13 27.3102 0.21 28.2602 0.39 29.2002C0.985455 32.7599 2.35656 36.145 4.40613 39.1157C6.45571 42.0864 9.13359 44.5699 12.25 46.3902C15.5551 48.4021 19.2987 49.5825 23.16 49.8302C23.2893 49.8425 23.4168 49.8693 23.54 49.9102H26.46C27.41 49.7802 28.37 49.6802 29.31 49.5202C34.8392 48.5865 39.8821 45.788 43.6 41.5902C47.1545 37.6796 49.3564 32.7289 49.88 27.4702L50 26.4102V23.4902C49.87 22.5502 49.79 21.5902 49.61 20.6602C49.0106 17.1059 47.6365 13.7271 45.5851 10.7632C43.5337 7.79938 40.8554 5.32318 37.74 3.51025C33.9755 1.19591 29.639 -0.0198467 25.22 0.000245054Z" fill="#05141F"/>
<path d="M25.6895 11.71V24.95L34.6195 31.35" stroke="#05141F" stroke-width="2" stroke-linecap="round" stroke-linejoin="round"/>
</svg>
