<svg width="50" height="50" viewBox="0 0 50 50" fill="none" xmlns="http://www.w3.org/2000/svg">
<path d="M25.5 46C34.6127 46 42 38.6127 42 29.5C42 20.3873 34.6127 13 25.5 13C16.3873 13 9 20.3873 9 29.5C9 38.6127 16.3873 46 25.5 46Z" stroke="#05141F" stroke-width="2"/>
<path d="M25.5 42C32.4036 42 38 36.4036 38 29.5C38 22.5964 32.4036 17 25.5 17C18.5964 17 13 22.5964 13 29.5C13 36.4036 18.5964 42 25.5 42Z" stroke="#05141F" stroke-width="2"/>
<path d="M26 8C27.1046 8 28 7.10457 28 6C28 4.89543 27.1046 4 26 4C24.8954 4 24 4.89543 24 6C24 7.10457 24.8954 8 26 8Z" stroke="#05141F" stroke-width="2"/>
<path d="M26 8V13M39.768 12.732L36.233 16.268M26 20V29L31 34M37 10L42 15" stroke="#05141F" stroke-width="2"/>
</svg>
