<svg width="50" height="50" viewBox="0 0 50 50" fill="none" xmlns="http://www.w3.org/2000/svg">
<g clip-path="url(#clip0_282_9155)">
<path d="M49.9998 24.8898C49.9656 31.5371 47.3105 37.9026 42.611 42.604C37.9115 47.3054 31.5471 49.963 24.8998 49.9998C19.9642 49.98 15.145 48.4998 11.0493 45.7456C6.95369 42.9914 3.76491 39.0865 1.88484 34.5231C0.00476623 29.9596 -0.482463 24.9417 0.484548 20.1018C1.45156 15.2619 3.82954 10.8165 7.31882 7.32586C10.8081 3.83519 15.2525 1.45544 20.0921 0.486501C24.9316 -0.482438 29.9496 0.0027926 34.5139 1.88104C39.0781 3.7593 42.9842 6.94652 45.74 11.0411C48.4958 15.1356 49.978 19.9543 49.9998 24.8898ZM47.5398 24.8898C47.518 20.4413 46.1804 16.0986 43.6953 12.4088C41.2102 8.71906 37.6889 5.84715 33.5748 4.1548C29.4606 2.46245 24.9377 2.02536 20.5757 2.89857C16.2136 3.77179 12.2075 5.91626 9.06185 9.06189C5.91622 12.2075 3.77175 16.2137 2.89853 20.5757C2.02532 24.9378 2.46241 29.4607 4.15476 33.5748C5.8471 37.6889 8.71902 41.2103 12.4088 43.6953C16.0986 46.1804 20.4412 47.518 24.8898 47.5398C27.8653 47.5557 30.8145 46.982 33.567 45.8518C36.3196 44.7217 38.8211 43.0575 40.9269 40.9553C43.0328 38.8531 44.7015 36.3546 45.8365 33.6041C46.9715 30.8535 47.5504 27.9053 47.5398 24.9298V24.8898Z" fill="#05141F"/>
<path d="M24.9302 41.0705V38.5405C26.925 38.5382 28.8948 38.0961 30.6993 37.2457C32.5038 36.3953 34.0986 35.1575 35.3702 33.6205C36.7817 31.9504 37.7514 29.9527 38.1902 27.8105L36.5502 29.0005L35.0802 27.0005L40.1602 23.2305L44.0902 28.3105L42.0902 29.7805L40.7502 28.1005C38.4902 36.0805 33.2802 40.4005 24.9302 41.0705Z" fill="#05141F"/>
<path d="M24.88 8.75V11.23C17.94 11.7433 13.5 15.31 11.56 21.93L11.68 22.07C11.94 21.86 12.2 21.65 12.47 21.45L13.27 20.82L14.74 22.82L9.82998 26.55L5.72998 21.63L7.72998 20.16L8.99998 21.85C11.25 13.79 16.49 9.44 24.88 8.75Z" fill="#05141F"/>
</g>
<defs>
<clipPath id="clip0_282_9155">
<rect width="50" height="50" fill="white"/>
</clipPath>
</defs>
</svg>
