<svg width="16" height="16" viewBox="0 0 16 16" fill="none" xmlns="http://www.w3.org/2000/svg">
<path fill-rule="evenodd" clip-rule="evenodd" d="M8.66173 11.748C8.66173 11.748 8.90574 11.722 9.02974 11.59C9.14474 11.47 9.13973 11.242 9.13973 11.242C9.13973 11.242 9.12574 10.18 9.62774 10.023C10.1227 9.86901 10.7587 11.05 11.4337 11.505C11.9437 11.848 12.3307 11.773 12.3307 11.773L14.1337 11.748C14.1337 11.748 15.0767 11.691 14.6297 10.964C14.5927 10.904 14.3687 10.424 13.2897 9.44101C12.1577 8.41101 12.3097 8.57801 13.6717 6.79601C14.5007 5.71101 14.8317 5.04901 14.7287 4.76601C14.6297 4.49501 14.0197 4.56601 14.0197 4.56601L11.9897 4.57901C11.9897 4.57901 11.8397 4.55901 11.7277 4.62401C11.6187 4.68801 11.5477 4.83801 11.5477 4.83801C11.5477 4.83801 11.2277 5.67801 10.7987 6.39201C9.89473 7.89801 9.53373 7.97801 9.38573 7.88401C9.04173 7.66601 9.12773 7.00801 9.12773 6.54101C9.12773 5.08101 9.35373 4.47101 8.68873 4.31401C8.46873 4.26201 8.30573 4.22801 7.74173 4.22201C7.01673 4.21401 6.40373 4.22401 6.05673 4.39101C5.82673 4.50101 5.64673 4.74901 5.75673 4.76401C5.89073 4.78101 6.19473 4.84401 6.35573 5.05901C6.56373 5.33701 6.55573 5.96101 6.55573 5.96101C6.55573 5.96101 6.67573 7.67901 6.27673 7.89301C6.00373 8.03901 5.62873 7.74001 4.82273 6.37301C4.5493 5.8983 4.30712 5.40625 4.09773 4.90001C4.09773 4.90001 4.03773 4.75501 3.92973 4.67701C3.79973 4.58301 3.61873 4.55401 3.61873 4.55401L1.68973 4.56601C1.68973 4.56601 1.39973 4.57401 1.29373 4.69801C1.19973 4.80801 1.28673 5.03501 1.28673 5.03501C1.28673 5.03501 2.79673 8.50301 4.50673 10.251C6.07473 11.853 7.85473 11.748 7.85473 11.748H8.66173Z" fill="white"/>
</svg>
