<svg width="50" height="50" viewBox="0 0 50 50" fill="none" xmlns="http://www.w3.org/2000/svg">
<g clip-path="url(#clip0_302_10868)">
<path d="M42.6722 4.00753H13.0022C12.4422 4.00753 11.8322 4.00753 11.2522 4.00753H9.60217C8.60217 4.00753 7.60217 4.00753 6.60217 4.08753C4.80891 4.19012 3.12371 4.97813 1.89522 6.28851C0.666734 7.5989 -0.0110246 9.33139 0.00217154 11.1275C0.00217154 13.5809 0.00217154 16.0309 0.00217154 18.4775V26.4775C0.00217154 30.3675 0.00217154 34.2675 0.00217154 38.1575C-0.0351804 39.6464 0.410186 41.1073 1.27173 42.3221C2.13328 43.537 3.36475 44.4404 4.78217 44.8975C5.58181 45.1629 6.4197 45.2946 7.26217 45.2875C19.0822 45.2875 30.9022 45.2875 42.7122 45.2875C44.4497 45.3337 46.1433 44.7383 47.4696 43.6149C48.7959 42.4915 49.6619 40.9189 49.9022 39.1975C49.9176 39.1263 49.9521 39.0606 50.0022 39.0075V10.2975C49.9422 10.0775 49.8822 9.85753 49.8322 9.63753C49.7257 9.15028 49.5716 8.67467 49.3722 8.21753C48.8185 6.91588 47.8798 5.81482 46.6821 5.06225C45.4844 4.30967 44.0851 3.94162 42.6722 4.00753ZM47.5322 17.6075H36.8022C35.4567 17.5677 34.1282 17.9166 32.976 18.6125C31.8237 19.3084 30.8966 20.3218 30.3056 21.5312C29.7146 22.7406 29.4848 24.0947 29.6439 25.4314C29.8029 26.7681 30.3439 28.0305 31.2022 29.0675C31.8796 29.8851 32.7292 30.543 33.6903 30.9942C34.6515 31.4454 35.7004 31.6787 36.7622 31.6775H47.5022V31.9875C47.5126 32.0705 47.5126 32.1545 47.5022 32.2375C47.5022 32.8575 47.5022 33.4775 47.5022 34.0975C47.5022 35.5575 47.5022 37.0975 47.4522 38.5575C47.3988 39.6558 46.9452 40.6966 46.1769 41.4833C45.4086 42.27 44.3789 42.7482 43.2822 42.8275H42.5722H7.34217C6.42744 42.8935 5.51434 42.679 4.72464 42.2127C3.93493 41.7464 3.30616 41.0504 2.92217 40.2175C2.60593 39.5237 2.44225 38.7701 2.44217 38.0075C2.44217 30.2275 2.44217 21.7275 2.44217 11.2875C2.41035 10.6409 2.51477 9.9949 2.74867 9.39126C2.98256 8.78763 3.3407 8.23988 3.79986 7.78354C4.25903 7.3272 4.80898 6.97246 5.41405 6.7423C6.01911 6.51214 6.6658 6.41172 7.31217 6.44753H42.7122C43.7922 6.3952 44.8565 6.72255 45.7205 7.3728C46.5844 8.02305 47.1935 8.95518 47.4422 10.0075C47.5406 10.41 47.5877 10.8233 47.5822 11.2375C47.5822 12.7675 47.5822 14.2975 47.5822 15.8275V17.0075C47.5863 17.0841 47.5863 17.1609 47.5822 17.2375L47.5322 17.6075ZM47.5322 20.0275V29.1975H47.1822C47.0724 29.2074 46.9619 29.2074 46.8522 29.1975H36.8522C36.1441 29.213 35.4414 29.0712 34.7947 28.7824C34.148 28.4937 33.5733 28.0651 33.1122 27.5275C32.578 26.8794 32.2314 26.0974 32.1101 25.2663C31.9888 24.4352 32.0973 23.5868 32.4239 22.813C32.7505 22.0392 33.2828 21.3696 33.9629 20.8768C34.6431 20.384 35.4451 20.0869 36.2822 20.0175C37.9622 20.0175 39.6822 20.0175 41.2822 20.0175H47.5322V20.0275Z" fill="#05141F"/>
<path d="M38.6121 23.458C38.4021 23.458 38.1821 23.458 37.9621 23.458H36.6321C36.3208 23.4658 36.0247 23.5943 35.8064 23.8163C35.588 24.0384 35.4646 24.3366 35.4621 24.648C35.4594 24.8051 35.4879 24.9612 35.5459 25.1072C35.6039 25.2533 35.6903 25.3864 35.8 25.4989C35.9097 25.6114 36.0406 25.701 36.1851 25.7627C36.3296 25.8243 36.485 25.8567 36.6421 25.858C37.3081 25.8984 37.976 25.8984 38.6421 25.858C38.9525 25.8528 39.2486 25.7265 39.4672 25.506C39.6857 25.2856 39.8095 24.9884 39.8121 24.678C39.8121 24.3579 39.6863 24.0506 39.4619 23.8223C39.2374 23.5941 38.9322 23.4633 38.6121 23.458Z" fill="#05141F"/>
</g>
<defs>
<clipPath id="clip0_302_10868">
<rect width="50" height="50" fill="white"/>
</clipPath>
</defs>
</svg>
